<?xml version="1.0" encoding="utf-8"?>
<!-- Generator: Adobe Illustrator 24.1.3, SVG Export Plug-In . SVG Version: 6.00 Build 0)  -->
<svg version="1.1" id="Layer_1" xmlns="http://www.w3.org/2000/svg" xmlns:xlink="http://www.w3.org/1999/xlink" x="0px" y="0px"
	 viewBox="0 0 320 500" style="enable-background:new 0 0 320 500;" xml:space="preserve">
<style type="text/css">
	.st0{fill:#F2D388;}
	.st1{opacity:0.7;fill:#FFFFFF;enable-background:new    ;}
	.st2{fill:none;stroke:#263238;stroke-linecap:round;stroke-linejoin:round;stroke-miterlimit:10;}
	.st3{fill:#B1AFFF;}
	.st4{fill:#FFFFFF;stroke:#263238;stroke-linecap:round;stroke-linejoin:round;stroke-miterlimit:10;}
	.st5{fill:#FFFFFF;}
	.st6{display:none;}
	.st7{display:inline;fill:#92E3A9;}
	.st8{display:inline;}
	.st9{fill:#FFFFFF;stroke:#999999;stroke-width:0.5;stroke-miterlimit:10;}
	.st10{fill:#E8E8E8;}
	.st11{fill:#FFFFFF;stroke:#999999;stroke-miterlimit:10;}
	.st12{fill:none;stroke:#999999;stroke-miterlimit:10;}
	.st13{fill:none;stroke:#92E3A9;stroke-miterlimit:10;}
	.st14{fill:#263238;}
	.st15{fill:none;stroke:#999999;stroke-width:0.5;stroke-miterlimit:10;}
	.st16{fill:#92E3A9;}
	.st17{fill:none;stroke:#263238;stroke-miterlimit:10;}
	.st18{display:inline;fill:none;stroke:#000000;stroke-miterlimit:10;}
	.st19{fill:#92E3A9;stroke:#999999;stroke-width:0.5;stroke-miterlimit:10;}
	.st20{fill:none;stroke:#263238;stroke-width:0.8211;stroke-linecap:round;stroke-linejoin:round;stroke-miterlimit:10;}
	.st21{fill:#263238;stroke:#263238;stroke-width:0.7251;stroke-linecap:round;stroke-linejoin:round;stroke-miterlimit:10;}
	.st22{fill:#263238;stroke:#263238;stroke-width:0.8831;stroke-linecap:round;stroke-linejoin:round;stroke-miterlimit:10;}
	.st23{fill:#263238;stroke:#263238;stroke-linecap:round;stroke-linejoin:round;stroke-miterlimit:10;}
	.st24{opacity:0.25;}
	.st25{opacity:0.6;}
	.st26{fill:#F29393;}
	.st27{opacity:0.3;}
	.st28{fill:#B1AFFF;stroke:#263238;stroke-miterlimit:10;}
	.st29{fill:none;stroke:#FFFFFF;stroke-miterlimit:10;}
	.st30{fill:none;stroke:#263238;stroke-width:2;stroke-linecap:round;stroke-linejoin:round;stroke-miterlimit:10;}
</style>
<g>
	<g id="Background_Simple">
		<g>
			<path class="st0" d="M-16.1,171.2c0,0,15.7-66.7,77.9-99.2s136.3-18.6,196.7-9.1c60.3,9.5,98.8,55.7,94.7,111.1
				c-4.1,55.4-52.8,60.7-90,116.2c-37.2,55.6-39.1,76.2-99,101.8s-136.8-16.5-166.4-91C-31.8,226.7-16.1,171.2-16.1,171.2z"/>
			<path class="st1" d="M-16.1,171.2c0,0,15.7-66.7,77.9-99.2s136.3-18.6,196.7-9.1c60.3,9.5,98.8,55.7,94.7,111.1
				c-4.1,55.4-52.8,60.7-90,116.2c-37.2,55.6-39.1,76.2-99,101.8s-136.8-16.5-166.4-91C-31.8,226.7-16.1,171.2-16.1,171.2z"/>
		</g>
	</g>
	<g id="Plants_1_">
		<g>
			<g>
				<g>
					<path class="st0" d="M14.3,284.8c0,0,1.7,3.2,0.2,6.1c-1.5,3-3.4,6-2.2,7.5c1.1,1.5,4.5,3.4,4.1,6.6s-4.8,9.6-2,13.1
						s7.5,3.4,7.7,7.3c0.2,3.9-4.5,7.1-3.2,10.7c1.3,3.5,9,4.3,9,6.7c0,2.5-3,5.1-0.6,7.7c2.5,2.6,14.3,9.5,15.9,6.6
						c1.7-2.8,5.1-10.6,2.9-21.6c-0.4-1.9-3-2.3-3.4-4.9c-0.4-2.6,0.7-7.3-1.1-9.9c-1.9-2.6-7.9-3.5-8.3-5.7
						c-0.4-2,2.2-7.1-0.4-10.3c-2.6-3.2-8.9-4.7-8.9-6.7s1.9-4.7-0.7-7.5C20.7,287.8,14.3,284.8,14.3,284.8z"/>
					<path class="st2" d="M41.9,356.6c1.1,3.6,2,7.2,2.7,11.3c1.5,9.3,2.3,72.1,2.3,72.1"/>
					<path class="st2" d="M23.3,306.9c3.9,11.8,10.7,27.8,13.5,35.5c1.9,5.2,3.6,9.7,5.1,14.2"/>
					<path class="st2" d="M15.3,285.9c0,0,3.2,2.6,6,14.1c0.2,0.7,0.4,1.6,0.7,2.3"/>
				</g>
			</g>
			<g>
				<g>
					<path class="st3" d="M72.9,306.2c0,0-1.3,2.5-0.2,4.9c1.2,2.4,2.7,4.8,1.8,6c-0.9,1.2-3.6,2.7-3.3,5.2
						c0.3,2.5,3.9,7.6,1.6,10.5c-2.2,2.9-6,2.7-6.1,5.8c-0.2,3.1,3.6,5.7,2.5,8.5c-1.1,2.9-7.2,3.4-7.2,5.4c0,2,2.4,4,0.4,6.1
						c-2,2.1-11.4,7.5-12.7,5.3c-1.3-2.2-4.1-8.4-2.3-17.3c0.3-1.5,2.4-1.8,2.7-3.9s-0.6-5.8,0.9-8c1.5-2.1,6.3-2.9,6.6-4.5
						c0.3-1.6-1.8-5.7,0.3-8.3c2.1-2.5,7-3.8,7-5.4s-1.5-3.8,0.6-6C67.8,308.5,72.9,306.2,72.9,306.2z"/>
					<path class="st2" d="M51.3,362.5c-1.1,3.2-2,6.5-2.5,10.2c-1.2,7.5-1.9,57.8-1.9,57.8"/>
					<path class="st2" d="M65.8,323.9c-3.1,9.4-8.6,22.2-10.8,28.4c-1.3,3.8-2.6,7-3.7,10.2"/>
					<path class="st2" d="M72.2,307.1c0,0-2.5,2.1-4.8,11.2c-0.2,0.6-0.3,1.2-0.5,1.9"/>
				</g>
			</g>
			<g>
				<g>
					<path class="st3" d="M21.4,348.6c0,0,1.1,2.1,0.2,4.1c-1,2-2.3,4-1.5,5c0.7,1,3,2.3,2.8,4.4c-0.2,2.1-3.3,6.4-1.4,8.8
						s5,2.3,5.2,4.9c0.2,2.6-3,4.8-2.1,7.1c0.9,2.4,6,2.9,6,4.5s-2,3.4-0.4,5.2c1.6,1.7,9.5,6.3,10.7,4.4c1.1-1.9,3.4-7,1.9-14.5
						c-0.2-1.2-2-1.6-2.3-3.3c-0.2-1.7,0.5-4.9-0.7-6.6s-5.2-2.4-5.5-3.8c-0.2-1.4,1.5-4.8-0.2-6.9c-1.7-2.1-5.9-3.1-5.9-4.5
						c0-1.4,1.2-3.1-0.5-5C25.6,350.7,21.4,348.6,21.4,348.6z"/>
					<path class="st2" d="M39.3,395.3c1,2.9,1.8,5.7,2.3,9c1,6.2,1.6,29.5,1.6,29.5"/>
					<path class="st2" d="M27.4,363.5c2.6,7.9,7.2,18.5,9,23.7c1.1,3,2,5.5,3,8.1"/>
					<path class="st2" d="M21.9,349.5c0,0,2.1,1.7,4,9.4c0.1,0.5,0.2,1,0.4,1.6"/>
				</g>
			</g>
			<g>
				<g>
					<path class="st0" d="M86,345.5c0,0-1.6,1.8-1.1,4c0.5,2.2,1.3,4.4,0.3,5.2c-1,0.8-3.4,1.5-3.7,3.6c-0.2,2.1,1.7,7-0.7,8.9
						c-2.4,1.9-5.4,1.1-6.1,3.6c-0.7,2.5,1.8,5.3,0.4,7.5c-1.4,2.1-6.6,1.4-6.9,3c-0.4,1.6,1.1,3.8-0.8,5.1s-10.7,4-11.4,1.9
						c-0.7-2-1.7-7.7,1.5-14.5c0.5-1.1,2.3-1,3-2.7c0.7-1.6,0.7-4.8,2.2-6.3c1.6-1.4,5.7-1.1,6.2-2.4c0.6-1.3-0.4-5,1.8-6.6
						c2.2-1.6,6.5-1.7,6.8-3c0.3-1.3-0.5-3.4,1.6-4.8C81.3,346.5,86,345.5,86,345.5z"/>
					<path class="st2" d="M57.1,386.9c-1.7,2.5-3.1,4.9-3.6,8.1c-1,6.2-1.6,29.5-1.6,29.5"/>
					<path class="st2" d="M76.7,358.5c-4.3,7-11.2,16.4-14.3,21c-1.8,2.7-3.8,5-5.4,7.3"/>
					<path class="st2" d="M85.1,346.2c0,0-2.5,1.2-6.1,8.2c-0.2,0.5-0.5,0.9-0.7,1.4"/>
				</g>
			</g>
			<g>
				<path class="st4" d="M41.4,447.2h13.9c7.4-3.8,12.5-13.4,12.5-24.6c0-7.4-2.2-14-5.9-18.8H34.6c-3.6,4.8-5.9,11.4-5.9,18.8
					C28.8,433.8,34.1,443.4,41.4,447.2z"/>
				<path class="st2" d="M29.1,420.6c0,0,13.7-16.7,15.2-11c2.2,8.5-11.6,20.7-5.7,19.9c6-0.7,25.6-19.2,21.4-9.4
					c-4.1,9.8-15,18.4-7.9,17.3s11.6-12.8,11.6-6c0,6.8-1.9,9.8-1.9,9.8"/>
				<path class="st2" d="M33.3,438.2c0,0,15.4-6,11.6-1.5c-3.8,4.5-4.5,7.9-1.9,7.9c2.6,0,8.7-3.4,7.9-0.7c-0.7,2.6-1.6,3.2-1.6,3.2
					"/>
				<path class="st2" d="M51,404c0,0-5.7,9.4-1.5,8.7c4.1-0.7,12.4-8.3,11.6-3.4c-0.7,4.9,1.1,6.8,4.5,3"/>
				<rect x="41.4" y="447.2" class="st4" width="14.2" height="2"/>
			</g>
		</g>
	</g>
	<g id="Device">
		<g>
			<g>
				<path class="st5" d="M233.1,57.7h-67.5l-2.8,5.2c-3,5.5-8.9,9-15.3,9c-6.4,0-12.3-3.4-15.3-9l-2.8-5.2H62c-7.2,0-13,5.6-13,12.7
					v347.4c0,7,5.8,12.7,13,12.7h171.1c7.2,0,13-5.6,13-12.7V70.4C246.1,63.3,240.2,57.7,233.1,57.7z"/>
				<g class="st6">
					<rect x="55.4" y="78.6" class="st7" width="185.7" height="345.7"/>
					<g class="st8">
						<rect x="131" y="107" class="st9" width="104.2" height="73.9"/>
						<rect x="136.2" y="121.1" class="st10" width="59.1" height="9.4"/>
						<rect x="136.2" y="142.6" class="st10" width="59.1" height="9.4"/>
						<g>
							<rect x="137" y="169" class="st11" width="4.2" height="4.2"/>
							<line class="st12" x1="144.2" y1="171.8" x2="195.3" y2="171.8"/>
						</g>
						<g>
							<rect x="137" y="161" class="st11" width="4.2" height="4.2"/>
							<line class="st12" x1="144.2" y1="163.5" x2="178.6" y2="163.5"/>
							<polyline class="st13" points="137.8,162.6 138.8,163.7 140.1,162.1 							"/>
						</g>
						<g>
							<path class="st14" d="M138.5,115.2l-1.1-3.4h0.7l0.9,2.7l0.9-2.7h0.6l-1.1,3.4v1.9h-0.6L138.5,115.2L138.5,115.2z"/>
							<path class="st14" d="M140.5,113c0-0.9,0.4-1.3,1.2-1.3c0.9,0,1.2,0.6,1.2,1.3v2.8c0,0.9-0.4,1.3-1.2,1.3
								c-0.9,0-1.2-0.6-1.2-1.3V113z M141.1,115.9c0,0.5,0.2,0.8,0.7,0.8s0.7-0.3,0.7-0.8V113c0-0.5-0.2-0.8-0.7-0.8
								s-0.7,0.3-0.7,0.8V115.9z"/>
							<path class="st14" d="M144,115.9c0,0.5,0.2,0.8,0.7,0.8s0.7-0.3,0.7-0.8v-4.1h0.6v4.1c0,0.9-0.4,1.3-1.2,1.3
								s-1.2-0.6-1.2-1.3v-4.1h0.6V115.9z"/>
							<path class="st14" d="M147.7,111.8c0.9,0,1.2,0.5,1.2,1.2v0.5c0,0.6-0.2,1-0.7,1.1c0.5,0.2,0.7,0.6,0.7,1.1v0.9
								c0,0.2,0,0.5,0.1,0.7h-0.6c-0.1-0.2-0.1-0.3-0.1-0.7v-0.9c0-0.6-0.3-0.8-0.8-0.8h-0.4v2.3h-0.6v-5.5H147.7z M147.6,114.3
								c0.5,0,0.8-0.2,0.8-0.8V113c0-0.5-0.2-0.8-0.7-0.8h-0.6v2C147.1,114.3,147.6,114.3,147.6,114.3z"/>
							<path class="st14" d="M151.3,116.1l-0.2,1.1h-0.6l1.1-5.4h0.9l1.1,5.4h-0.6l-0.2-1.1H151.3z M151.4,115.5h1.2l-0.6-3.2
								L151.4,115.5z"/>
							<path class="st14" d="M156.4,113v0.5h-0.6V113c0-0.5-0.2-0.8-0.7-0.8c-0.5,0-0.7,0.3-0.7,0.8v2.9c0,0.5,0.2,0.8,0.7,0.8
								c0.5,0,0.7-0.3,0.7-0.8v-0.7h0.6v0.7c0,0.9-0.4,1.3-1.2,1.3c-0.9,0-1.2-0.6-1.2-1.3v-2.8c0-0.9,0.4-1.3,1.2-1.3
								C156,111.7,156.4,112.3,156.4,113z"/>
							<path class="st14" d="M159.2,113v0.5h-0.6V113c0-0.5-0.2-0.8-0.7-0.8c-0.5,0-0.7,0.3-0.7,0.8v2.9c0,0.5,0.2,0.8,0.7,0.8
								c0.5,0,0.7-0.3,0.7-0.8v-0.7h0.6v0.7c0,0.9-0.4,1.3-1.2,1.3c-0.9,0-1.2-0.6-1.2-1.3v-2.8c0-0.9,0.4-1.3,1.2-1.3
								C158.8,111.7,159.2,112.3,159.2,113z"/>
							<path class="st14" d="M159.8,113c0-0.9,0.4-1.3,1.2-1.3c0.9,0,1.2,0.6,1.2,1.3v2.8c0,0.9-0.4,1.3-1.2,1.3
								c-0.9,0-1.2-0.6-1.2-1.3V113z M160.4,115.9c0,0.5,0.2,0.8,0.7,0.8s0.7-0.3,0.7-0.8V113c0-0.5-0.2-0.8-0.7-0.8
								s-0.7,0.3-0.7,0.8V115.9z"/>
							<path class="st14" d="M163.3,115.9c0,0.5,0.2,0.8,0.7,0.8s0.7-0.3,0.7-0.8v-4.1h0.6v4.1c0,0.9-0.4,1.3-1.2,1.3
								c-0.9,0-1.2-0.6-1.2-1.3v-4.1h0.6L163.3,115.9L163.3,115.9z"/>
							<path class="st14" d="M166.3,117.1h-0.5v-5.4h0.8l1.2,3.9v-3.9h0.6v5.4h-0.7l-1.3-4.4L166.3,117.1L166.3,117.1z"/>
							<path class="st14" d="M169.7,117.1v-4.9h-1v-0.5h2.6v0.6h-1v4.9L169.7,117.1L169.7,117.1z"/>
						</g>
						<g>
							<path class="st14" d="M138.5,138.9l-1.1-3.4h0.7l0.9,2.7l0.9-2.7h0.6l-1.1,3.4v1.9h-0.6L138.5,138.9L138.5,138.9z"/>
							<path class="st14" d="M140.5,136.7c0-0.9,0.4-1.3,1.2-1.3c0.9,0,1.2,0.6,1.2,1.3v2.8c0,0.9-0.4,1.3-1.2,1.3
								c-0.9,0-1.2-0.6-1.2-1.3V136.7z M141.1,139.6c0,0.5,0.2,0.8,0.7,0.8s0.7-0.3,0.7-0.8v-2.9c0-0.5-0.2-0.8-0.7-0.8
								s-0.7,0.3-0.7,0.8V139.6z"/>
							<path class="st14" d="M144,139.6c0,0.5,0.2,0.8,0.7,0.8s0.7-0.3,0.7-0.8v-4.1h0.6v4.1c0,0.9-0.4,1.3-1.2,1.3
								s-1.2-0.6-1.2-1.3v-4.1h0.6V139.6z"/>
							<path class="st14" d="M147.7,135.5c0.9,0,1.2,0.5,1.2,1.2v0.5c0,0.6-0.2,1-0.7,1.1c0.5,0.2,0.7,0.6,0.7,1.1v0.9
								c0,0.2,0,0.5,0.1,0.7h-0.6c-0.1-0.2-0.1-0.3-0.1-0.7v-0.9c0-0.6-0.3-0.8-0.8-0.8h-0.4v2.3h-0.6v-5.4h1.1V135.5z M147.6,138
								c0.5,0,0.8-0.2,0.8-0.8v-0.5c0-0.5-0.2-0.8-0.7-0.8h-0.6v2H147.6z"/>
							<path class="st14" d="M152.6,137.9v0.6h-1.3v1.9h1.6v0.6h-2.2v-5.4h2.2v0.6h-1.6v1.8L152.6,137.9L152.6,137.9z"/>
							<path class="st14" d="M155.5,140.8h-0.6l-0.9-4.3v4.3h-0.5v-5.4h0.9l0.9,4.3l0.9-4.3h0.9v5.4h-0.6v-4.3L155.5,140.8z"/>
							<path class="st14" d="M158.1,139.8l-0.2,1.1h-0.6l1.1-5.4h0.9l1.1,5.4h-0.6l-0.2-1.1H158.1z M158.2,139.2h1.2l-0.6-3.2
								L158.2,139.2z"/>
							<path class="st14" d="M161.3,135.5v5.4h-0.6v-5.4H161.3z"/>
							<path class="st14" d="M162,140.8v-5.4h0.6v4.9h1.5v0.6L162,140.8L162,140.8z"/>
						</g>
					</g>
					<g class="st8">
						<rect x="131" y="275.9" class="st9" width="104.2" height="93.5"/>
						<g>
							<path class="st10" d="M171.4,400h-32.6c-1.4,0-2.6-1.1-2.6-2.6v-7.6c0-1.4,1.1-2.6,2.6-2.6h32.6c1.4,0,2.6,1.1,2.6,2.6v7.6
								C173.9,398.8,172.8,400,171.4,400z"/>
							<path class="st14" d="M221.6,400H189c-1.4,0-2.6-1.1-2.6-2.6v-7.6c0-1.4,1.1-2.6,2.6-2.6h32.6c1.4,0,2.6,1.1,2.6,2.6v7.6
								C224.2,398.8,223,400,221.6,400z"/>
							<g>
								<path class="st5" d="M201,391.7v0.2h-0.8v-0.2c0-0.6-0.2-1-0.8-1c-0.6,0-0.8,0.4-0.8,1c0,1.5,2.3,1.6,2.3,3.5
									c0,1.1-0.5,1.7-1.5,1.7c-1.1,0-1.5-0.7-1.5-1.7v-0.4h0.7v0.4c0,0.6,0.3,1,0.8,1c0.6,0,0.8-0.4,0.8-1c0-1.5-2.2-1.6-2.2-3.5
									c0-1.1,0.5-1.7,1.5-1.7C200.5,389.9,201,390.6,201,391.7z"/>
								<path class="st5" d="M202.4,395.4l-0.3,1.3h-0.7l1.2-6.7h1.1l1.2,6.7h-0.8l-0.3-1.3H202.4z M202.5,394.7h1.5l-0.8-3.9
									L202.5,394.7z"/>
								<path class="st5" d="M205.9,390l1.1,5.8l1.1-5.8h0.7l-1.2,6.7h-1.1l-1.2-6.7H205.9z"/>
								<path class="st5" d="M211.8,393v0.7h-1.6v2.4h2v0.7h-2.8V390h2.8v0.7h-2v2.3L211.8,393L211.8,393z"/>
							</g>
							<g>
								<path class="st14" d="M147.9,391.7v0.6h-0.7v-0.7c0-0.6-0.3-1-0.8-1c-0.6,0-0.8,0.4-0.8,1v3.5c0,0.6,0.3,1,0.8,1
									c0.6,0,0.8-0.4,0.8-1v-0.9h0.7v0.9c0,1.1-0.5,1.7-1.5,1.7c-1.1,0-1.5-0.7-1.5-1.7v-3.4c0-1.1,0.5-1.7,1.5-1.7
									C147.5,389.9,147.9,390.6,147.9,391.7z"/>
								<path class="st14" d="M149.4,395.4l-0.3,1.3h-0.7l1.2-6.7h1.1l1.2,6.7h-0.8l-0.3-1.3H149.4z M149.5,394.7h1.5l-0.8-3.9
									L149.5,394.7z"/>
								<path class="st14" d="M153.3,396.7h-0.7V390h1l1.5,4.9V390h0.7v6.7H155l-1.7-5.4V396.7z"/>
								<path class="st14" d="M159.5,391.7v0.6h-0.7v-0.7c0-0.6-0.3-1-0.8-1c-0.6,0-0.8,0.4-0.8,1v3.5c0,0.6,0.3,1,0.8,1
									c0.6,0,0.8-0.4,0.8-1v-0.9h0.7v0.9c0,1.1-0.5,1.7-1.5,1.7c-1.1,0-1.5-0.7-1.5-1.7v-3.4c0-1.1,0.5-1.7,1.5-1.7
									C159,389.9,159.5,390.6,159.5,391.7z"/>
								<path class="st14" d="M162.6,393v0.7h-1.6v2.4h2v0.7h-2.8V390h2.8v0.7h-2v2.3L162.6,393L162.6,393z"/>
								<path class="st14" d="M163.6,396.7V390h0.8v6h1.9v0.7H163.6z"/>
							</g>
						</g>
						<line class="st12" x1="136.6" y1="291" x2="207.2" y2="291"/>
						<line class="st12" x1="136.6" y1="353.7" x2="207.2" y2="353.7"/>
						<line class="st15" x1="135.5" y1="348.3" x2="231.2" y2="348.3"/>
						<g>
							<rect x="137" y="300.7" class="st11" width="4.2" height="4.2"/>
							<line class="st12" x1="144.2" y1="303.1" x2="178.6" y2="303.1"/>
							<polyline class="st13" points="137.8,302.2 138.8,303.3 140.1,301.8 							"/>
						</g>
						<g>
							<rect x="137" y="312.2" class="st11" width="4.2" height="4.2"/>
							<line class="st12" x1="144.2" y1="314.7" x2="191.9" y2="314.7"/>
						</g>
						<g>
							<rect x="137" y="323.7" class="st11" width="4.2" height="4.2"/>
							<line class="st12" x1="144.2" y1="326.2" x2="178.6" y2="326.2"/>
							<polyline class="st13" points="137.8,325.4 138.8,326.4 140.1,324.9 							"/>
						</g>
						<g>
							<rect x="137" y="335.3" class="st11" width="4.2" height="4.2"/>
							<line class="st12" x1="144.2" y1="337.7" x2="197.7" y2="337.7"/>
						</g>
						<g>
							<path class="st14" d="M138.8,282.2c0.9,0,1.2,0.5,1.2,1.3v2.7c0,0.9-0.4,1.3-1.2,1.3h-1.2v-5.4L138.8,282.2L138.8,282.2z
								 M138.8,287c0.5,0,0.7-0.3,0.7-0.8v-2.8c0-0.5-0.2-0.8-0.7-0.8h-0.7v4.3L138.8,287L138.8,287z"/>
							<path class="st14" d="M142.5,284.6v0.6h-1.3v1.9h1.6v0.6h-2.2v-5.4h2.2v0.6h-1.6v1.8L142.5,284.6L142.5,284.6z"/>
							<path class="st14" d="M143.3,287.6v-5.4h0.6v4.9h1.5v0.6L143.3,287.6L143.3,287.6z"/>
							<path class="st14" d="M147.8,284.6v0.6h-1.3v1.9h1.6v0.6h-2.2v-5.4h2.2v0.6h-1.6v1.8L147.8,284.6L147.8,284.6z"/>
							<path class="st14" d="M149.5,287.6v-4.9h-1v-0.6h2.6v0.6h-1v4.9H149.5z"/>
							<path class="st14" d="M153.4,284.6v0.6h-1.3v1.9h1.6v0.6h-2.2v-5.4h2.2v0.6h-1.6v1.8L153.4,284.6L153.4,284.6z"/>
							<path class="st14" d="M156.1,286.6l-0.2,1.1h-0.6l1.1-5.4h0.9l1.1,5.4h-0.6l-0.2-1.1H156.1z M156.1,286h1.2l-0.6-3.2
								L156.1,286z"/>
							<path class="st14" d="M161,283.5v0.5h-0.6v-0.5c0-0.5-0.2-0.8-0.7-0.8s-0.7,0.3-0.7,0.8v2.9c0,0.5,0.2,0.8,0.7,0.8
								s0.7-0.3,0.7-0.8v-0.7h0.6v0.7c0,0.9-0.4,1.3-1.2,1.3c-0.9,0-1.2-0.6-1.2-1.3v-2.8c0-0.9,0.4-1.3,1.2-1.3
								C160.7,282.2,161,282.7,161,283.5z"/>
							<path class="st14" d="M164,283.5v0.5h-0.6v-0.5c0-0.5-0.2-0.8-0.7-0.8s-0.7,0.3-0.7,0.8v2.9c0,0.5,0.2,0.8,0.7,0.8
								s0.7-0.3,0.7-0.8v-0.7h0.6v0.7c0,0.9-0.4,1.3-1.2,1.3s-1.2-0.6-1.2-1.3v-2.8c0-0.9,0.4-1.3,1.2-1.3
								C163.6,282.2,164,282.7,164,283.5z"/>
							<path class="st14" d="M164.5,283.5c0-0.9,0.4-1.3,1.2-1.3c0.9,0,1.2,0.6,1.2,1.3v2.8c0,0.9-0.4,1.3-1.2,1.3
								c-0.9,0-1.2-0.6-1.2-1.3V283.5z M165,286.4c0,0.5,0.2,0.8,0.7,0.8s0.7-0.3,0.7-0.8v-2.9c0-0.5-0.2-0.8-0.7-0.8
								s-0.7,0.3-0.7,0.8V286.4z"/>
							<path class="st14" d="M168.1,286.4c0,0.5,0.2,0.8,0.7,0.8s0.7-0.3,0.7-0.8v-4.1h0.6v4.1c0,0.9-0.4,1.3-1.2,1.3
								c-0.9,0-1.2-0.6-1.2-1.3v-4.1h0.6L168.1,286.4L168.1,286.4z"/>
							<path class="st14" d="M171,287.6h-0.6v-5.4h0.8l1.2,3.9v-3.9h0.6v5.4h-0.7l-1.3-4.4L171,287.6L171,287.6z"/>
							<path class="st14" d="M174.4,287.6v-4.9h-1v-0.6h2.6v0.6h-1v4.9H174.4z"/>
						</g>
						<line class="st12" x1="136.6" y1="358.5" x2="207.2" y2="358.5"/>
					</g>
					<g class="st8">
						<rect x="131" y="191.5" class="st9" width="104.2" height="73.9"/>
						<circle class="st10" cx="143.5" cy="219.3" r="3.3"/>
						<path class="st16" d="M172.6,219.3c0,1.8-1.4,3.3-3.3,3.3c-1.8,0-3.3-1.4-3.3-3.3c0-1.8,1.4-3.3,3.3-3.3
							C171.1,215.9,172.6,217.5,172.6,219.3z"/>
						<line class="st12" x1="136.6" y1="244.1" x2="207.2" y2="244.1"/>
						<line class="st12" x1="136.6" y1="248.6" x2="207.2" y2="248.6"/>
						<line class="st12" x1="136.6" y1="253.1" x2="207.2" y2="253.1"/>
						<line class="st12" x1="136.6" y1="257.7" x2="207.2" y2="257.7"/>
						<rect x="135.1" y="206.2" class="st15" width="95.9" height="22.6"/>
						<line class="st12" x1="149.1" y1="219.8" x2="161.2" y2="219.8"/>
						<line class="st12" x1="176.2" y1="219.8" x2="200.6" y2="219.8"/>
						<line class="st15" x1="135.5" y1="239.6" x2="231.2" y2="239.6"/>
						<g>
							<path class="st14" d="M139.4,198.6v0.6h-1.3v1.9h1.6v0.6h-2.2v-5.4h2.2v0.6h-1.6v1.8L139.4,198.6L139.4,198.6z"/>
							<path class="st14" d="M142.2,201.6h-0.6l-0.9-4.3v4.3h-0.5v-5.4h0.9l0.9,4.3l0.9-4.3h0.9v5.4h-0.6v-4.3L142.2,201.6z"/>
							<path class="st14" d="M144.9,200.6l-0.2,1.1h-0.6l1.1-5.4h0.9l1.1,5.4h-0.6l-0.2-1.1H144.9z M145,200.1h1.2l-0.6-3.2
								L145,200.1z"/>
							<path class="st14" d="M148.1,196.3v5.4h-0.6v-5.4H148.1z"/>
							<path class="st14" d="M148.7,201.6v-5.4h0.6v4.9h1.5v0.6L148.7,201.6L148.7,201.6z"/>
							<path class="st14" d="M153.1,201.6h-0.6v-5.4h0.8l1.2,3.9v-3.9h0.6v5.4h-0.7l-1.3-4.4L153.1,201.6L153.1,201.6z"/>
							<path class="st14" d="M155.7,197.6c0-0.9,0.4-1.3,1.2-1.3c0.9,0,1.2,0.6,1.2,1.3v2.8c0,0.9-0.4,1.3-1.2,1.3s-1.2-0.6-1.2-1.3
								V197.6z M156.3,200.4c0,0.5,0.2,0.8,0.7,0.8s0.7-0.3,0.7-0.8v-2.9c0-0.5-0.2-0.8-0.7-0.8s-0.7,0.3-0.7,0.8V200.4z"/>
							<path class="st14" d="M159.5,201.6v-4.8h-1v-0.6h2.6v0.6h-1v4.9L159.5,201.6L159.5,201.6z"/>
							<path class="st14" d="M162.1,196.3v5.4h-0.6v-5.4H162.1z"/>
							<path class="st14" d="M164.5,198.7v0.6h-1.2v2.3h-0.6v-5.4h2.1v0.6h-1.5v2L164.5,198.7L164.5,198.7z"/>
							<path class="st14" d="M165.9,196.3v5.4h-0.6v-5.4H165.9z"/>
							<path class="st14" d="M168.9,197.6v0.5h-0.6v-0.5c0-0.5-0.2-0.8-0.7-0.8s-0.7,0.3-0.7,0.8v2.9c0,0.5,0.2,0.8,0.7,0.8
								s0.7-0.3,0.7-0.8v-0.8h0.6v0.7c0,0.9-0.4,1.3-1.2,1.3c-0.9,0-1.2-0.6-1.2-1.3v-2.8c0-0.9,0.4-1.3,1.2-1.3
								C168.5,196.2,168.9,196.7,168.9,197.6z"/>
							<path class="st14" d="M170,200.6l-0.2,1.1h-0.6l1.1-5.4h0.9l1.1,5.4h-0.6l-0.2-1.1H170z M170.1,200.1h1.2l-0.6-3.2
								L170.1,200.1z"/>
							<path class="st14" d="M173.2,201.6v-4.8h-1v-0.6h2.6v0.6h-1v4.9L173.2,201.6L173.2,201.6z"/>
							<path class="st14" d="M175.8,196.3v5.4h-0.6v-5.4H175.8z"/>
							<path class="st14" d="M176.3,197.6c0-0.9,0.4-1.3,1.2-1.3c0.9,0,1.2,0.6,1.2,1.3v2.8c0,0.9-0.4,1.3-1.2,1.3
								c-0.9,0-1.2-0.6-1.2-1.3V197.6z M176.9,200.4c0,0.5,0.2,0.8,0.7,0.8s0.7-0.3,0.7-0.8v-2.9c0-0.5-0.2-0.8-0.7-0.8
								s-0.7,0.3-0.7,0.8V200.4z"/>
							<path class="st14" d="M180,201.6h-0.6v-5.4h0.8l1.2,3.9v-3.9h0.6v5.4h-0.7l-1.3-4.4L180,201.6L180,201.6z"/>
							<path class="st14" d="M184.8,197.6v0.2h-0.6v-0.2c0-0.5-0.2-0.8-0.6-0.8c-0.5,0-0.6,0.3-0.6,0.8c0,1.2,1.8,1.3,1.8,2.9
								c0,0.9-0.4,1.3-1.2,1.3c-0.9,0-1.2-0.6-1.2-1.3v-0.3h0.6v0.4c0,0.5,0.2,0.8,0.7,0.8s0.7-0.3,0.7-0.8c0-1.2-1.8-1.3-1.8-2.9
								c0-0.9,0.4-1.3,1.1-1.3C184.4,196.2,184.8,196.7,184.8,197.6z"/>
						</g>
					</g>
					<g class="st8">
						<g>
							<g>
								<path class="st14" d="M82.4,178.5v0.2h-0.7v-0.2c0-0.6-0.2-1-0.8-1s-0.8,0.4-0.8,1c0,1.5,2.2,1.6,2.2,3.5
									c0,1.1-0.5,1.6-1.5,1.6s-1.5-0.7-1.5-1.6v-0.5H80v0.4c0,0.6,0.3,1,0.8,1c0.6,0,0.8-0.4,0.8-1c0-1.5-2.2-1.6-2.2-3.5
									c0-1.1,0.5-1.6,1.4-1.6C81.9,176.8,82.4,177.4,82.4,178.5z"/>
								<path class="st14" d="M85.4,179.8v0.7h-1.6v2.4h2v0.7H83v-6.7h2.8v0.7h-2v2.3L85.4,179.8L85.4,179.8z"/>
								<path class="st14" d="M87.4,183.6v-6h-1.2v-0.7h3.2v0.7H88v6H87.4z"/>
								<path class="st14" d="M90.8,183.6v-6h-1.2v-0.7h3.2v0.7h-1.2v6H90.8z"/>
								<path class="st14" d="M94.1,176.9v6.7h-0.8v-6.7H94.1z"/>
								<path class="st14" d="M95.5,183.6h-0.7v-6.7h1l1.5,4.9v-4.9H98v6.7h-0.8l-1.7-5.4V183.6z"/>
								<path class="st14" d="M101.7,178.5v0.6H101v-0.6c0-0.6-0.2-1-0.8-1s-0.8,0.4-0.8,1v3.5c0,0.6,0.3,1,0.8,1
									c0.6,0,0.8-0.4,0.8-1v-1.4h-0.7v-0.7h1.4v2c0,1.1-0.5,1.7-1.5,1.7s-1.5-0.7-1.5-1.7v-3.4c0-1.1,0.5-1.7,1.5-1.7
									C101.2,176.8,101.7,177.4,101.7,178.5z"/>
							</g>
							<g>
								<rect x="62" y="194.2" class="st9" width="57.2" height="106.3"/>
								<line class="st12" x1="66.2" y1="201.4" x2="92.3" y2="201.4"/>
								<line class="st12" x1="66.2" y1="217.1" x2="92.3" y2="217.1"/>
								<line class="st12" x1="66.2" y1="232.9" x2="103.2" y2="232.9"/>
								<line class="st12" x1="66.2" y1="248.5" x2="92.3" y2="248.5"/>
								<line class="st12" x1="66.2" y1="264.3" x2="86.3" y2="264.3"/>
								<line class="st12" x1="66.2" y1="280" x2="92.3" y2="280"/>
								<line class="st12" x1="66.2" y1="293.9" x2="100.9" y2="293.9"/>
								<line class="st15" x1="62.6" y1="209.5" x2="118.7" y2="209.5"/>
								<line class="st15" x1="62.6" y1="224.8" x2="118.7" y2="224.8"/>
								<line class="st15" x1="62.6" y1="240.1" x2="118.7" y2="240.1"/>
								<line class="st15" x1="62.6" y1="255.5" x2="118.7" y2="255.5"/>
								<line class="st15" x1="62.6" y1="270.8" x2="118.7" y2="270.8"/>
								<line class="st15" x1="62.6" y1="286.1" x2="118.7" y2="286.1"/>
							</g>
							<path class="st14" d="M77.1,180.3v-2.9h-2.2c-0.2-0.5-0.4-1-0.7-1.4l1.6-1.6l-2-2l-1.6,1.6c-0.4-0.2-0.9-0.4-1.3-0.6v-2.3
								h-2.9v2.3c-0.5,0.1-1,0.3-1.3,0.6l-1.6-1.6l-2,2l1.6,1.6c-0.3,0.4-0.5,0.9-0.7,1.4h-2.2v2.9H64c0.1,0.6,0.3,1.1,0.6,1.5
								l-1.4,1.4l2,2l1.4-1.4c0.5,0.3,1.1,0.6,1.5,0.7v1.9h2.9v-1.9c0.6-0.2,1.1-0.4,1.5-0.7l1.4,1.4l2-2l-1.4-1.4
								c0.3-0.5,0.5-1,0.6-1.5H77.1z M69.5,182.6c-1.9,0-3.5-1.6-3.5-3.5c0-1.9,1.6-3.5,3.5-3.5s3.5,1.6,3.5,3.5
								C73,181.1,71.4,182.6,69.5,182.6z"/>
						</g>
					</g>
					<g class="st8">
						<circle class="st17" cx="90.5" cy="129.9" r="22.9"/>
						<path class="st17" d="M77.1,123.4c1.1,5.6,8.9,9.9,7.5,12.4c-1.4,2.5-9.9,10.3-9.9,10.3s-0.1,0.1-0.1,0.2
							c4.1,4,9.8,6.6,16.1,6.6c12.6,0,22.9-10.2,22.9-22.9c0-12.6-10.2-22.9-22.9-22.9C90.5,107,76,117.7,77.1,123.4z"/>
						<path class="st17" d="M111.7,138.7c0,0-5.5-0.5-10.5-4s-8.9-15.6-8.9-15.6s-5.6,6.4-6,10.3c-0.4,3.9,0.7,10.6,3.2,15.3
							c2.5,4.6,5.7,6.5,9.3,6.5"/>
						<path class="st17" d="M91.3,134.3c0,0,0,1.8,0,4.6c0,2.8,1.4,3.5,3.9,3.5"/>
						<path class="st17" d="M94.4,145.7c0,0,5-0.4,6.8-3.9"/>
						<path class="st17" d="M97.3,134.5c0,1.2-0.5,2.3-1.1,2.3s-1.1-1.1-1.1-2.3c0-1.2,0.5-2.3,1.1-2.3
							C96.8,132.2,97.3,133.3,97.3,134.5z"/>
						<path class="st17" d="M90.2,134.2c0,1.2-0.5,2.3-1.1,2.3s-1.1-1.1-1.1-2.3c0-1.2,0.5-2.3,1.1-2.3S90.2,132.9,90.2,134.2z"/>
						<path class="st17" d="M86.3,129.4c0,0,3.2-1.8,4.6,1.8"/>
						<path class="st17" d="M93.8,129.4c0,0,1.8-0.7,2.9,0.4"/>
					</g>
					<line class="st18" x1="64.7" y1="158.7" x2="118.5" y2="158.7"/>
					<line class="st18" x1="64.7" y1="165.6" x2="118.5" y2="165.6"/>
					<g class="st8">
						<rect x="55.4" y="78.6" class="st14" width="185.7" height="16.9"/>
						<path class="st9" d="M105.9,90.4H89.4c-1.5,0-2.9-1.2-2.9-2.9v-0.6c0-1.5,1.2-2.9,2.9-2.9h16.5c1.5,0,2.9,1.2,2.9,2.9v0.6
							C108.8,89.1,107.4,90.4,105.9,90.4z"/>
						<path class="st9" d="M132.9,90.4h-16.5c-1.5,0-2.9-1.2-2.9-2.9v-0.6c0-1.5,1.2-2.9,2.9-2.9h16.5c1.5,0,2.9,1.2,2.9,2.9v0.6
							C135.8,89.1,134.6,90.4,132.9,90.4z"/>
						<path class="st9" d="M160.1,90.4h-16.5c-1.5,0-2.9-1.2-2.9-2.9v-0.6c0-1.5,1.2-2.9,2.9-2.9h16.5c1.5,0,2.9,1.2,2.9,2.9v0.6
							C162.9,89.1,161.6,90.4,160.1,90.4z"/>
						<path class="st19" d="M187.1,90.4h-16.5c-1.5,0-2.9-1.2-2.9-2.9v-0.6c0-1.5,1.2-2.9,2.9-2.9h16.5c1.5,0,2.9,1.2,2.9,2.9v0.6
							C190,89.1,188.7,90.4,187.1,90.4z"/>
						<path class="st9" d="M220,86.6c0,2.6-2.1,4.6-4.6,4.6c-2.6,0-4.6-2.1-4.6-4.6c0-2.6,2.1-4.6,4.6-4.6
							C217.9,82,220,84.1,220,86.6z"/>
					</g>
				</g>
				<g>
					<rect x="218.9" y="62.7" class="st20" width="13.6" height="7.5"/>
					<rect x="218.9" y="62.7" class="st21" width="10.6" height="7.5"/>
					<rect x="232.5" y="64.8" class="st21" width="1.9" height="3.2"/>
				</g>
				<g>
					<rect x="60.1" y="65" class="st22" width="2.5" height="4.3"/>
					<rect x="64" y="63.5" class="st22" width="2.5" height="5.7"/>
					<rect x="68" y="61.7" class="st22" width="2.5" height="7.5"/>
				</g>
				<line class="st2" x1="55" y1="72.7" x2="240.1" y2="72.7"/>
			</g>
			<path class="st23" d="M255.7,177.1c0.8,0,1.3-0.6,1.3-1.3v-37.1c0-0.8-0.6-1.3-1.3-1.3h-3.6V66.6c0-9.8-7.9-17.8-17.8-17.8H60.7
				c-9.8,0-17.8,7.9-17.8,17.8v365.1c0,9.8,7.9,17.8,17.8,17.8h173.6c9.8,0,17.8-7.9,17.8-17.8V209h3.6c0.8,0,1.3-0.6,1.3-1.3v-16.5
				c0-0.8-0.6-1.3-1.3-1.3h-3.6v-12.6L255.7,177.1L255.7,177.1z M246.1,417.8c0,7-5.8,12.7-13,12.7H61.9c-7.2,0-13-5.6-13-12.7V70.4
				c0-7,5.8-12.7,13-12.7h67.5l2.8,5.2c3,5.5,8.9,9,15.3,9s12.3-3.4,15.3-9l2.8-5.2H233c7.2,0,13,5.6,13,12.7L246.1,417.8
				L246.1,417.8z"/>
			<path class="st4" d="M152.1,59.7c0-2.6-2.1-4.7-4.7-4.7s-4.7,2.1-4.7,4.7c0,2.6,2.1,4.7,4.7,4.7C150,64.3,152.1,62.3,152.1,59.7z
				"/>
		</g>
		<g>
			<g>
				<g>
					<g>
						<path class="st5" d="M101.4,446.4c-0.1,0.4-0.3,0.8-0.7,1.1c-0.6,0.4-1.4,0.4-2.1,0.4c-5.7-0.2-11.5-0.6-17.1-1.2
							c-0.9-2.5-1.2-5.2-0.6-7.9c4.2,0.2,8.3,0.6,12.4,1.3c0.5,0.1,0.9,0.2,1.4,0.2c1.4,0.3,2.9,0.7,4.1,1.4s2.3,2,2.6,3.4
							C101.5,445.5,101.6,446,101.4,446.4z"/>
					</g>
				</g>
			</g>
			<g class="st24">
				<g>
					<g>
						<path d="M101.4,446.4c-0.1,0.4-0.3,0.8-0.7,1.1c-0.6,0.4-1.4,0.4-2.1,0.4c-5.7-0.2-11.5-0.6-17.1-1.2
							c-0.9-2.5-1.2-5.2-0.6-7.9c4.2,0.2,8.3,0.6,12.4,1.3c-0.2,0.2-0.5,0.4-0.7,0.7c-0.4,0.4-0.2,1.1,0.3,1.1
							c1,0.2,2.4,0.5,3.4,1.1C97.6,443.7,99.6,446.6,101.4,446.4z"/>
					</g>
				</g>
			</g>
			<g>
				<g>
					<g>
						<path d="M99.1,448.4c-0.2,0-0.2,0-0.4,0c-5.6-0.2-11.3-0.6-17.2-1.2c-0.2,0-0.4-0.2-0.4-0.3c-1-2.9-1.2-5.7-0.6-8.2
							c0.1-0.2,0.3-0.4,0.6-0.4c4.6,0.3,9.3,0.6,13.9,1.6c1.5,0.3,3,0.7,4.3,1.5c1.5,0.9,2.5,2.3,2.9,3.7c0.2,0.9,0.1,2.1-0.8,2.9
							C100.5,448.3,99.8,448.4,99.1,448.4z M81.9,446.1c5.7,0.7,11.3,1.1,16.8,1.2c0.7,0,1.3,0,1.7-0.3c0.5-0.4,0.6-1.2,0.5-1.8
							c-0.2-1.1-1.1-2.3-2.4-3c-1.2-0.7-2.6-1.1-3.9-1.4c-4.3-0.9-8.9-1.2-13.2-1.6C81,441.4,81.2,443.7,81.9,446.1z"/>
					</g>
				</g>
			</g>
			<g>
				<g>
					<g>
						<path d="M98.7,444.3c0.3,0.2,0.6,0.3,0.7,0.6c0.2,0.2,0.3,0.6,0.5,0.8c0.2,0.6,0.2,1.2,0.2,1.8c0,0.2-0.2,0.5-0.4,0.5
							c-0.2,0-0.5-0.2-0.5-0.4v-0.1c0.1-0.6,0.2-1.1,0.1-1.6c0-0.2-0.1-0.5-0.2-0.7s-0.3-0.4-0.5-0.6l0,0
							C98.6,444.5,98.6,444.4,98.7,444.3C98.7,444.3,98.7,444.2,98.7,444.3z"/>
					</g>
				</g>
			</g>
			<g>
				<g>
					<g>
						<path class="st5" d="M97.9,447.6c-0.1,0.2-0.2,0.5-0.3,0.7c-0.4,0.7-1.2,1.3-2,1.6c-1.1,0.4-2.4,0.4-3.6,0.3
							c-2.5-0.1-5.2-0.2-7.7-0.2c-3.9-0.1-7.6-0.2-11.5-0.3c-1,0-1.9-0.1-2.9-0.1c-5.5-0.2-11.5-0.5-15.5-4.2c0.7,1,0.5,2.8-0.6,3.6
							c-1,0.8-2.5,1-3.8,0.9c-3.9-0.3-7.7-2.1-10.6-4.8c-2.9-2.7-4.9-6.2-6.2-9.9c-0.4-1.2-0.7-2.5-1-3.9c-0.3-1.9-0.5-3.7-0.4-5.6
							c0.1-2,0.4-3.9,1-5.7c0.9-2.7,2.4-5.3,4.4-7.4c0.1-0.1,0.2-0.2,0.2-0.2c1.6-1.6,3.4-2.8,5.3-3.6l0,0c-1.2-1.9-2-4.1-2.1-6.3
							c-0.1-1.5,0.1-3,0.4-4.5c1-3.6,3.4-6.8,6.3-9c2.1-1.6,4.7-2.8,7.3-3h0.1c2.7-0.2,5.5,0.7,7.4,2.7c0.6,0.7,1.1,1.4,1.4,2.2
							c0.6,1.4,0.7,2.9,0.2,4.3c-0.1,0.3-0.2,0.7-0.4,1c-0.7,1.2-1.7,2.2-3.1,2.5c-1.3,0.2-2.9-0.3-3.4-1.6
							c-0.6-1.1-0.2-2.5-0.8-3.6c-0.2-0.5-0.7-0.8-1.1-1.1c-1.3-0.7-3.3-0.4-4.6,0.5c-2.5,1.6-3.8,4.6-3.9,7.5
							c-0.1,2.7,0.7,5.3,2.2,7.7c0.2,0.2,0.2,0.4,0.4,0.6c0.1,0,0.1,0,0.2,0c3.3,0.2,6.2,2,8.6,4.4c0.6,0.6,1.1,1.1,1.5,1.7
							c0.5,0.7,1,1.3,1.4,2c1,1.6,1.9,3.2,2.7,4.8c0.7,1.3,1.4,2.5,2.1,3.8c0.2,0.2,0.2,0.4,0.4,0.7c3.6,6.1,7.9,13.6,15,15
							c4,0.7,8.1,1.6,12.1,2.3c1.1,0.2,2.3,0.4,3.2,1.1C97.3,445.4,98.1,446.5,97.9,447.6z"/>
					</g>
				</g>
			</g>
			<g>
				<g>
					<g>
						<path class="st0" d="M63.5,396.4c-0.7,1.2-1.7,2.2-3.1,2.5c-1.3,0.2-2.9-0.3-3.4-1.6c-0.6-1.1-0.2-2.5-0.8-3.6
							c-0.2-0.5-0.7-0.8-1.1-1.1c-0.1-0.1-0.1-0.1-0.2-0.2c-0.6-0.6-1.4-0.8-1.9-1.4c-1-1-0.8-2.8,0.1-3.9c0.5-0.5,1.1-0.8,1.7-1
							h0.1c2.7-0.2,5.5,0.7,7.4,2.7C64.1,391,64.7,394.1,63.5,396.4z"/>
					</g>
				</g>
			</g>
			<g class="st25">
				<g>
					<g>
						<path class="st5" d="M63.9,395.5c-0.6-3.4-2.5-8.2-9.3-7.6c-8.1,0.7-13.4,8.4-13.9,14.9c-0.1-1.5,0.1-3,0.4-4.5
							c1-3.6,3.4-6.8,6.3-9c2.1-1.6,4.7-2.8,7.3-3h0.1c2.7-0.2,5.5,0.7,7.4,2.7c0.6,0.7,1.1,1.4,1.4,2.2
							C64.2,392.5,64.3,394.1,63.9,395.5z"/>
					</g>
				</g>
			</g>
			<g>
				<g>
					<g>
						<path class="st0" d="M43,418c-0.7,1.6-1.6,3.1-2,4.8c-0.4,2,0.1,4-0.2,6.1c-0.2,1.7-0.8,3.4-2,4.5c-1.3,1.1-3.3,1.5-4.8,0.5
							c-0.8-0.6-1.4-1.4-1.7-2.4c-0.7-3.8-0.6-7.7,0.6-11.3c0.9-2.9,2.5-5.5,4.6-7.5l0,0c1.6-0.9,3.9-1,5.1,0.4
							C43.7,414.3,43.6,416.4,43,418z"/>
					</g>
				</g>
			</g>
			<g class="st25">
				<g>
					<g>
						<path class="st5" d="M42.8,409.1c-0.2,0.2-8.4,7.6-11,16.9c0.1-2,0.4-3.9,1-5.7c0.9-2.7,2.4-5.3,4.4-7.4
							c0.1-0.1,0.2-0.2,0.2-0.2C39.1,411.1,40.9,409.9,42.8,409.1z"/>
					</g>
				</g>
			</g>
			<g>
				<g>
					<g>
						<path class="st0" d="M63.6,424.3c-0.1,0.6-0.2,1.2-0.7,1.6c-0.7,0.7-1.8,0.7-2.6,0.2c-0.8-0.5-1.3-1.4-1.5-2.3
							s-0.1-1.9,0.1-2.8c0.2-0.9,0.3-1.9,0.4-2.8c0.1-1.6-0.4-3.3-1.1-4.8c0-0.1-0.1-0.2-0.1-0.2c0.6,0.6,1.1,1.1,1.5,1.7
							c1.6,2.1,2.9,4.5,4.1,6.9C63.7,422.8,63.7,423.6,63.6,424.3z"/>
					</g>
				</g>
			</g>
			<g class="st25">
				<g>
					<g>
						<path class="st5" d="M66,426.4L66,429c0,0-3.2-4.3-6.6-11c-3.2-6.2-10.2-9-10.2-9c3.4,0.2,6.4,2,8.7,4.4
							c0.6,0.6,1.1,1.1,1.5,1.7c1.6,2.1,2.9,4.5,4.1,6.9c0.7,1.3,1.4,2.5,2.1,3.8C65.8,426,65.9,426.2,66,426.4z"/>
					</g>
				</g>
			</g>
			<g>
				<g>
					<g>
						<path class="st0" d="M84.1,450.1c-3.9-0.1-7.6-0.2-11.5-0.3c-1.3-0.5-2.5-1.1-3.7-1.8c0.3-1.2,1.5-2,2.6-2.3
							c1.1-0.2,2.3,0.1,3.4,0.3c1.1,0.2,2.3,0.5,3.4,0.1c0.6-0.2,1.1-0.5,1.7-0.7c1.5-0.3,2.9,0.8,3.5,2.1
							C84,448.5,84.1,449.3,84.1,450.1z"/>
					</g>
				</g>
			</g>
			<g>
				<g>
					<g>
						<path d="M92.8,450.9c-0.3,0-0.7,0-1,0c-2.5-0.1-4.9-0.2-7.4-0.2l-14.7-0.3c-5.4-0.2-10.6-0.5-14.5-3.3c0,1-0.4,2-1.1,2.6
							c-1,0.8-2.3,1.1-4.2,1c-3.9-0.3-7.8-2-10.9-4.9c-2.8-2.6-4.9-6.1-6.3-10.2c-0.4-1.3-0.7-2.6-1-3.9c-0.7-4-0.6-8,0.7-11.6
							c1-3,2.6-5.7,4.8-7.8c1.5-1.5,3.1-2.6,4.9-3.4c-1.9-3.1-2.4-7-1.4-10.7c1-3.6,3.3-6.9,6.6-9.3c2.5-1.8,5-2.9,7.5-3.1H55
							c3-0.2,5.9,0.8,7.8,2.9c2,2.2,2.6,5.6,1.3,8.1c-0.7,1.5-2,2.5-3.4,2.8c-1.6,0.3-3.4-0.5-4-1.9c-0.3-0.7-0.4-1.3-0.5-2
							c-0.1-0.6-0.2-1.1-0.4-1.6c-0.2-0.3-0.5-0.7-0.9-0.8c-1.1-0.6-2.8-0.4-4,0.4c-2.1,1.4-3.5,4.1-3.6,7c-0.1,2.6,0.7,5.3,2.4,7.7
							c3.9,0.2,6.9,2.6,8.8,4.6c0.6,0.6,1.1,1.1,1.6,1.8c1.6,2.1,2.9,4.5,4.1,6.8l0.1,0.1c0.7,1.2,1.3,2.5,2,3.8
							c0.2,0.4,0.5,0.7,0.7,1.1c3.6,6.1,7.6,13,14.3,14.2l12.1,2.3c1.1,0.2,2.4,0.4,3.4,1.1c1.2,0.8,2,2.1,1.7,3.4l0,0
							c-0.2,1.1-1.3,2.3-2.7,2.8C94.8,450.8,93.8,450.9,92.8,450.9z M54.4,445.1c0.2,0,0.2,0.1,0.3,0.2c3.8,3.4,9.3,3.9,15.2,4
							l14.7,0.3c2.5,0.1,4.9,0.1,7.4,0.2c1.1,0,2.4,0.1,3.4-0.3c1.1-0.3,1.9-1.2,2-2c0.2-1-0.6-1.9-1.3-2.3c-0.9-0.6-2-0.8-3-1
							L81,441.9c-7.2-1.4-11.4-8.4-15.1-14.8c-0.2-0.4-0.5-0.7-0.7-1.1c-0.7-1.2-1.5-2.5-2.1-3.9l-0.1-0.1c-1.2-2.3-2.5-4.6-4-6.7
							c-0.5-0.6-1-1.1-1.5-1.7c-1.8-1.9-4.7-4.2-8.4-4.3c-0.2,0-0.3-0.1-0.4-0.2c-1.9-2.6-2.9-5.6-2.7-8.6c0.1-3.3,1.7-6.3,4.1-8
							c1.6-1.1,3.7-1.2,5.1-0.5c0.6,0.3,1,0.7,1.3,1.3c0.3,0.7,0.4,1.4,0.5,2c0.1,0.6,0.2,1.1,0.3,1.6c0.5,1,1.7,1.6,2.9,1.3
							c1.1-0.2,2.1-1.1,2.7-2.2c1.1-2.1,0.6-5-1.1-6.9c-1.6-1.8-4.3-2.7-7-2.5h-0.1c-2.3,0.2-4.8,1.1-7,2.9c-3,2.3-5.2,5.4-6.1,8.8
							c-1,3.6-0.3,7.5,1.6,10.4c0.1,0.2,0.1,0.3,0.1,0.4c-0.1,0.2-0.2,0.2-0.3,0.3c-1.9,0.7-3.6,2-5.2,3.4c-2,2-3.6,4.6-4.5,7.4
							c-1.1,3.4-1.3,7.2-0.6,11.1c0.2,1.2,0.6,2.5,1,3.8c1.3,3.9,3.4,7.2,6.1,9.8c3,2.8,6.6,4.4,10.2,4.7c1.6,0.1,2.7-0.2,3.4-0.7
							c0.8-0.7,1.1-2.2,0.5-3c-0.2-0.2-0.2-0.5,0.1-0.7C54.1,445.1,54.2,445.1,54.4,445.1z M97.9,447.6L97.9,447.6L97.9,447.6z"/>
					</g>
				</g>
			</g>
			<g>
				<g>
					<g>
						<path d="M52.3,417.8c0.7,1.2,1.3,2.6,1.6,4.1c0.2,1.5,0.2,3-0.1,4.4c-0.2,1.5-0.8,2.9-1.6,4.1c-0.7,1.3-1.7,2.5-2.8,3.4
							l0.2-0.3c-0.1,0.8-0.2,1.6-0.2,2.4c0,0.8,0,1.6,0.1,2.4c0.2,1.6,0.5,3.1,1.1,4.6l-0.4-0.3c0.9,0.2,1.8,0.5,2.6,1
							c0.8,0.5,1.5,1.1,2,1.9c0.2,0.2,0.1,0.5-0.1,0.7c-0.2,0.2-0.5,0.1-0.7-0.1l0,0c-0.5-0.7-1.1-1.1-1.8-1.6s-1.5-0.7-2.3-0.8
							c-0.2,0-0.3-0.2-0.4-0.3l0,0c-0.3-0.7-0.6-1.6-0.7-2.4c-0.2-0.8-0.3-1.6-0.4-2.5c-0.1-0.8-0.1-1.6-0.1-2.5
							c0-0.8,0.1-1.6,0.2-2.5l0,0c0-0.1,0.1-0.2,0.2-0.2c2-1.8,3.6-4.3,4.2-7c0.2-1.3,0.3-2.7,0.2-4.1c-0.2-1.4-0.6-2.7-1.1-4
							c-0.1-0.1,0-0.2,0.1-0.2C52.2,417.8,52.3,417.8,52.3,417.8z"/>
					</g>
				</g>
			</g>
			<g>
				<g>
					<g>
						<path d="M62.6,437.8c0,1.7,0.5,3.4,1.4,4.9c0.4,0.7,1,1.4,1.6,2c0.6,0.7,1.2,1.2,1.9,1.7c0.3,0.2,0.7,0.5,1.1,0.7
							c0.4,0.2,0.7,0.4,1.1,0.6c0.8,0.3,1.6,0.7,2.5,0.9c0.8,0.2,1.7,0.4,2.5,0.6c0.4,0.1,0.9,0.1,1.3,0.2c0.4,0,0.9,0.1,1.3,0.1
							l0,0c0.2,0,0.4,0.2,0.4,0.5c0,0.2-0.2,0.4-0.4,0.4c-0.5,0-0.9,0-1.4,0c-0.5,0-0.9-0.1-1.4-0.2c-0.9-0.1-1.8-0.3-2.7-0.6
							c-0.9-0.2-1.7-0.6-2.6-0.9c-0.4-0.2-0.8-0.4-1.2-0.7s-0.8-0.5-1.1-0.8c-0.7-0.6-1.4-1.2-2-1.9c-0.6-0.7-1.1-1.5-1.6-2.3
							c-0.4-0.8-0.8-1.7-1-2.6c0-0.1-0.1-0.2-0.1-0.3l-0.1-0.3c0-0.2,0-0.5-0.1-0.7c0-0.2,0-0.5,0-0.7c0-0.2,0.1-0.5,0.1-0.7
							c0-0.1,0.1-0.2,0.2-0.2C62.5,437.7,62.6,437.8,62.6,437.8L62.6,437.8z"/>
					</g>
				</g>
			</g>
			<g>
				<g>
					<g>
						<path d="M95.2,446.2c0.9,0.9,1.5,2.2,1.3,3.5l0,0c0,0.2-0.2,0.4-0.5,0.4c-0.2,0-0.4-0.2-0.4-0.5v-0.1c0.2-1.1,0-2.2-0.7-3.1
							l0,0c-0.1-0.1-0.1-0.2,0-0.3C95,446.1,95.1,446.2,95.2,446.2z"/>
					</g>
				</g>
			</g>
			<g>
				<g>
					<g>
						<path d="M50.3,443.7c-0.9,0-1.8,0.2-2.7,0.6l0,0c-0.2,0.1-0.2,0-0.3-0.2c-0.1-0.1,0-0.2,0.1-0.3c0.9-0.5,1.8-0.8,2.9-1l0,0
							c0.2,0,0.5,0.2,0.5,0.4C50.8,443.4,50.6,443.6,50.3,443.7C50.4,443.7,50.3,443.7,50.3,443.7z"/>
					</g>
				</g>
			</g>
			<g>
				<g>
					<g>
						<path d="M50,446.8c0.2,0.2,0.5,0.3,0.7,0.6c0.2,0.2,0.4,0.5,0.5,0.8c0.2,0.3,0.2,0.6,0.2,0.9c0.1,0.3,0,0.7,0,1
							c-0.1,0.2-0.3,0.4-0.6,0.3s-0.3-0.2-0.3-0.4l0,0c0-0.2,0-0.5,0-0.7c0-0.2-0.1-0.5-0.2-0.7s-0.2-0.5-0.2-0.7
							c-0.1-0.2-0.2-0.5-0.4-0.7l0,0c-0.1-0.1,0-0.2,0.1-0.3C49.8,446.8,49.9,446.8,50,446.8z"/>
					</g>
				</g>
			</g>
			<g>
				<g>
					<g>
						<path d="M52.3,445.7c0.3,0.2,0.6,0.3,0.8,0.6c0.2,0.2,0.5,0.5,0.7,0.8c0.2,0.3,0.3,0.7,0.3,1c0.1,0.3,0.1,0.7,0,1.1
							c0,0.2-0.2,0.4-0.5,0.4c-0.2,0-0.4-0.2-0.4-0.5l0,0c0-0.5-0.1-1.1-0.2-1.6c-0.2-0.5-0.5-1-1-1.4l0,0c-0.1-0.1-0.1-0.2,0-0.3
							S52.2,445.7,52.3,445.7z"/>
					</g>
				</g>
			</g>
			<g>
				<g>
					<g>
						<path class="st0" d="M87.5,420.1c-1.5-0.2-2.9-0.4-4.3-0.8c-2.5-0.6-5-1.4-7.3-2.4c0.8-1.1,1.7-2.1,2.8-3
							c1.5-1.3,3.1-2.4,4.9-3.1c0.6-0.2,1.2-0.5,1.9-0.2c0.2,0.1,0.3,0.2,0.4,0.3c0.4,0.4,0.6,1,0.7,1.5c0.2,0.5,0.2,0.9,0.3,1.4
							C87.3,415.7,87.6,417.8,87.5,420.1z"/>
					</g>
				</g>
			</g>
			<g>
				<g>
					<g>
						<path d="M87.5,420.5C87.5,420.5,87.4,420.5,87.5,420.5c-1.5-0.2-3-0.5-4.4-0.8c-2.5-0.6-4.9-1.4-7.4-2.5
							c-0.2-0.1-0.2-0.2-0.3-0.3c-0.1-0.2,0-0.3,0.1-0.4c2-2.8,4.8-5,8-6.4c0.7-0.3,1.5-0.6,2.3-0.2c0.2,0.1,0.4,0.2,0.6,0.4
							c0.5,0.5,0.7,1.1,0.9,1.7c0.7,2.5,1.1,5.2,0.9,8c0,0.2-0.1,0.2-0.2,0.4C87.8,420.5,87.6,420.5,87.5,420.5z M76.6,416.6
							c2.2,0.9,4.4,1.6,6.6,2.1c1.2,0.3,2.5,0.6,3.7,0.7c0-2.5-0.2-4.8-0.9-7.1c-0.1-0.4-0.3-1-0.6-1.2c-0.1-0.1-0.2-0.2-0.2-0.2
							c-0.4-0.2-1,0-1.5,0.2C81,412.3,78.5,414.2,76.6,416.6z"/>
					</g>
				</g>
			</g>
			<g>
				<g>
					<g>
						<path class="st26" d="M87.5,420.1c-0.4-0.1-0.7-0.1-1.1-0.2c-1.1-0.2-2.1-0.4-3.2-0.7c-0.2-2.3,0.2-4.5,1.1-6.6
							c0.2-0.4,0.3-0.9,0.7-1.2c0.1-0.2,0.2-0.2,0.3-0.3c0.2-0.2,0.4-0.2,0.7-0.3c0.4,0.4,0.6,1,0.7,1.5
							C87.3,414.7,87.6,417.3,87.5,420.1z"/>
					</g>
				</g>
			</g>
			<g class="st27">
				<g>
					<g>
						<path d="M85.9,419.8c-1.1-0.2-1.6-0.3-2.7-0.6c-0.2-2.3,0.2-4.5,1.1-6.6c0.2-0.4,0.3-0.9,0.7-1.2
							C85.8,413.6,86.1,416.9,85.9,419.8z"/>
					</g>
				</g>
			</g>
			<g>
				<g>
					<g>
						<path d="M87.5,420.5C87.5,420.5,87.4,420.5,87.5,420.5c-1.5-0.2-3-0.5-4.4-0.8c-0.2-0.1-0.3-0.2-0.3-0.4
							c-0.2-2.4,0.2-4.6,1.1-6.8c0.2-0.7,0.6-1.3,1.1-1.8c0.2-0.2,0.5-0.3,0.8-0.4c0.2,0,0.3,0,0.4,0.1c0.5,0.5,0.7,1.1,0.8,1.6
							c0.7,2.5,1.1,5.2,0.9,8c0,0.2-0.1,0.2-0.2,0.3C87.7,420.5,87.6,420.5,87.5,420.5z M83.6,418.9c1.1,0.2,2.3,0.5,3.4,0.7
							c0.1-2.5-0.2-4.8-0.9-7.2c-0.1-0.3-0.2-0.7-0.4-1.1c-0.1,0-0.2,0.1-0.2,0.2c-0.4,0.3-0.7,0.9-0.8,1.4
							C83.9,414.7,83.5,416.8,83.6,418.9z"/>
					</g>
				</g>
			</g>
			<g class="st24">
				<g>
					<g>
						<path d="M87.5,420.1c-1.5-0.2-2.9-0.4-4.3-0.8c-2.5-0.6-5-1.4-7.3-2.4c0.8-1.1,1.7-2.1,2.8-3c2.5,0.4,6,0.8,8.3-0.2
							C87.3,415.7,87.6,417.8,87.5,420.1z"/>
					</g>
				</g>
			</g>
			<g>
				<g>
					<g>
						<path class="st5" d="M92.3,437.2c-9.7,7.5-18,5.2-21.7,1.6c-1.1-1.1-2-2.3-2.9-3.6c-0.8-1.5-1.5-3-1.7-4.7
							c-0.2-1.5-0.2-3,0.1-4.5c0.5-2.1,1.5-4.1,3-5.8c0.8-1,1.8-1.9,2.9-2.6c1.1-0.7,2.5-1.4,3.8-1.7c4.8-1.3,10.2,0.1,13.5,3.7
							c1,1.1,1.8,2.3,2.7,3.4c0.7,0.7,1.4,1.4,2.4,2c0.8,0.6,1.5,1.3,1.8,2.3c0.1,0.2,0.2,0.5,0.2,0.8c0,0.1,0,0.1,0,0.2
							C96.7,431.5,95.1,435.1,92.3,437.2z"/>
					</g>
				</g>
			</g>
			<g class="st25">
				<g>
					<g>
						<path class="st5" d="M96.4,428.2c-0.5-0.5-1.4-1.2-2.5-1.8c-2.1-1.1-3.9-3-5.1-4.4c-1.1-1.3-7.3-7.6-16.7-4.3
							c1.1-0.7,2.5-1.4,3.8-1.7c4.8-1.3,10.2,0.1,13.5,3.7c1,1.1,1.8,2.3,2.7,3.4c0.7,0.7,1.4,1.4,2.4,2c0.8,0.6,1.5,1.3,1.8,2.3
							C96.4,427.6,96.4,427.8,96.4,428.2C96.4,428.1,96.4,428.1,96.4,428.2z"/>
					</g>
				</g>
			</g>
			<g>
				<g>
					<g>
						<path d="M66,430.8c-0.2-0.8-0.4-1.7-0.4-2.6c0-0.9,0.1-1.8,0.3-2.7l0.1-0.3L66,425c0-0.1,0-0.1,0.1-0.2l0.2-0.7
							c0.1-0.2,0.2-0.4,0.2-0.7l0.2-0.3c0.1-0.1,0.1-0.2,0.2-0.3l0.3-0.6l0.3-0.6c0.1-0.2,0.2-0.4,0.3-0.6l0.2-0.2
							c0.1-0.1,0.2-0.2,0.2-0.2l0.4-0.5c0.2-0.2,0.3-0.3,0.4-0.5c0.3-0.3,0.7-0.7,0.9-1l0.5-0.4c0.1-0.1,0.2-0.2,0.2-0.2l0.2-0.2
							c0.2-0.2,0.3-0.2,0.6-0.4l0.6-0.4l0.2-0.1l0.2-0.1l0.3-0.2c0.2-0.1,0.4-0.2,0.6-0.3l0.6-0.3c0.2-0.1,0.4-0.2,0.7-0.2l0.3-0.2
							l0.3-0.1c0.2-0.1,0.4-0.2,0.7-0.2c0.4-0.1,0.9-0.2,1.3-0.3c3.5-0.7,7.3,0.2,10.3,2.1c0.7,0.5,1.5,1.1,2.1,1.7
							c0.3,0.3,0.7,0.7,0.9,1c0.2,0.3,0.6,0.7,0.8,1.1c0.5,0.7,1.1,1.4,1.6,2c0.6,0.6,1.2,1.1,1.9,1.6c0.8,0.5,1.5,1.3,1.9,2.2
							c0.1,0.2,0.2,0.5,0.2,0.7c0,0.1,0.1,0.2,0.1,0.3s0,0.2,0,0.3c0,0.2,0,0.5,0,0.7c0,0.2,0,0.5,0,0.7c-0.1,1.8-0.7,3.6-1.6,5.2
							c-0.5,0.7-1.1,1.5-1.6,2.1l-0.5,0.5l-0.5,0.4c-0.3,0.2-0.7,0.5-1.1,0.8c-0.3,0.2-0.7,0.5-1.1,0.7l-0.6,0.3l-0.6,0.3
							c-0.4,0.2-0.7,0.4-1.1,0.7c-0.2,0.1-0.4,0.2-0.6,0.3c-0.2,0.1-0.4,0.2-0.6,0.2c-1.6,0.7-3.4,1.2-5.1,1.5
							c-0.9,0.1-1.8,0.2-2.7,0.2s-1.8-0.2-2.6-0.3c-1.7-0.4-3.4-1.1-4.9-2.1c-0.2-0.2-0.3-0.2-0.6-0.4c-0.2-0.2-0.3-0.3-0.5-0.4
							c-0.3-0.3-0.7-0.7-0.9-1c-0.6-0.7-1.1-1.4-1.5-2.2c-0.1-0.2,0-0.2,0.1-0.3s0.2,0,0.3,0.1l0,0c0.6,0.7,1.1,1.2,1.7,1.9
							c0.6,0.6,1.2,1.1,1.9,1.6s1.4,0.9,2.2,1.2c0.7,0.3,1.6,0.6,2.4,0.7c0.8,0.2,1.6,0.2,2.5,0.2s1.6,0,2.5-0.2
							c1.6-0.2,3.3-0.7,4.8-1.4c0.2-0.1,0.4-0.2,0.6-0.2c0.2-0.1,0.4-0.2,0.6-0.2c0.4-0.2,0.7-0.4,1.1-0.7l0.6-0.3l0.6-0.3
							c0.3-0.2,0.7-0.5,1.1-0.7c0.3-0.2,0.7-0.5,1-0.7l0.5-0.4l0.4-0.4c0.6-0.6,1.1-1.2,1.5-2c0.8-1.4,1.3-3,1.4-4.7
							c0-0.2,0-0.4,0-0.6s0-0.4,0-0.6c0-0.1,0-0.2,0-0.2c0-0.1,0-0.2-0.1-0.2c-0.1-0.2-0.1-0.3-0.2-0.5c-0.2-0.3-0.3-0.7-0.6-1
							c-0.2-0.2-0.2-0.2-0.4-0.4c-0.2-0.2-0.3-0.2-0.5-0.3c-0.7-0.5-1.5-1.1-2.1-1.7c-0.7-0.7-1.1-1.4-1.7-2c-0.2-0.3-0.5-0.7-0.8-1
							c-0.2-0.3-0.6-0.7-0.8-0.9c-0.6-0.6-1.2-1.1-1.9-1.6c-2.8-1.8-6.2-2.5-9.5-2s-6.2,2.5-8.3,5.2c-0.1,0.1-0.2,0.2-0.2,0.2
							l-0.2,0.2c-0.1,0.2-0.2,0.3-0.3,0.5l-0.3,0.6l-0.2,0.6c-0.1,0.1-0.1,0.2-0.2,0.2l-0.1,0.3c-0.1,0.2-0.2,0.4-0.2,0.6l-0.2,0.6
							c0,0.1,0,0.1-0.1,0.2v0.2l-0.1,0.3c-0.2,0.8-0.3,1.6-0.4,2.5c-0.1,0.8-0.1,1.6,0,2.5l0,0c0,0.2-0.1,0.2-0.2,0.2
							C66,431,66,431,66,430.8z"/>
					</g>
				</g>
			</g>
			<g>
				<g>
					<g>
						<path class="st5" d="M78.8,418.3C78.8,418.3,78.8,418.2,78.8,418.3c-1-1.6-2-3.1-3.4-4.3c-0.1-0.1-0.2-0.2-0.3-0.3
							c-0.5-0.3-1-0.7-1.6-0.6c-0.8,0.1-1.5,0.8-2,1.6c-2,3.1-2.6,7-2.7,10.7"/>
					</g>
				</g>
			</g>
			<g>
				<g>
					<g>
						<path d="M78.2,418.7c-0.4-0.7-0.9-1.5-1.4-2.1c-0.5-0.7-1.1-1.3-1.7-1.9l-0.1-0.1l-0.1-0.1l-0.2-0.2c-0.2-0.2-0.3-0.2-0.5-0.3
							c-0.3-0.2-0.6-0.2-0.9-0.2c-0.2,0.1-0.6,0.3-0.8,0.6c-0.2,0.2-0.5,0.7-0.7,1c-0.9,1.5-1.5,3.1-1.9,4.8
							c-0.1,0.4-0.2,0.8-0.2,1.3c-0.1,0.4-0.2,0.8-0.2,1.3c-0.2,0.9-0.2,1.7-0.3,2.6c0,0.2-0.2,0.2-0.2,0.2c-0.1,0-0.2-0.1-0.2-0.2
							c-0.1-0.9-0.1-1.8,0-2.7c0-0.4,0.1-0.9,0.2-1.3c0.1-0.4,0.2-0.9,0.2-1.3c0.4-1.8,1-3.5,1.9-5.2c0.2-0.4,0.5-0.8,0.8-1.2
							c0.2-0.2,0.3-0.4,0.6-0.6c0.2-0.2,0.5-0.3,0.7-0.4c0.2-0.1,0.6-0.1,0.9-0.1c0.3,0.1,0.6,0.2,0.8,0.2c0.2,0.1,0.4,0.2,0.7,0.4
							l0.2,0.2l0.2,0.1l0.2,0.1c0.7,0.7,1.3,1.3,1.9,2c0.6,0.7,1.1,1.5,1.5,2.3l0,0c0.2,0.2,0,0.6-0.2,0.7
							C78.7,419,78.3,418.9,78.2,418.7z"/>
					</g>
				</g>
			</g>
			<g>
				<g>
					<g>
						<path class="st26" d="M78.7,418.2c-0.6,0.3-1.1,0.7-1.6,1.1c-0.9,0.7-1.7,1.6-2.5,2.6c-0.5-2-0.7-4.2-0.7-6.3
							c0-0.1,0-0.1,0-0.2c0-0.6,0.1-1.3,0.7-1.6c0.2-0.1,0.3-0.1,0.4-0.1c0.2,0.1,0.2,0.2,0.3,0.3C76.6,415.2,77.8,416.7,78.7,418.2
							z"/>
					</g>
				</g>
			</g>
			<g class="st27">
				<g>
					<g>
						<path d="M76.9,419.3c-0.9,0.7-1.7,1.6-2.5,2.6c-0.5-2-0.7-4.2-0.7-6.3C75.2,416.4,76.4,417.8,76.9,419.3z"/>
					</g>
				</g>
			</g>
			<g>
				<g>
					<g>
						<path d="M74.6,422.3C74.5,422.3,74.5,422.3,74.6,422.3c-0.2,0-0.4-0.2-0.4-0.3c-0.5-2.1-0.7-4.3-0.7-6.6c0-0.4,0-1.6,0.9-2
							c0.2-0.1,0.4-0.2,0.7-0.2c0.1,0,0.2,0,0.2,0.1s0.2,0.2,0.4,0.3c1.4,1.2,2.5,2.7,3.4,4.3c0.1,0.1,0.1,0.2,0,0.3
							c0,0.1-0.1,0.2-0.2,0.2c-1.6,0.8-3,2-3.9,3.5C74.8,422.3,74.6,422.3,74.6,422.3z M74.8,414.2L74.8,414.2
							c-0.3,0.2-0.5,0.5-0.5,1.2c0,1.8,0.2,3.6,0.4,5.4c0.9-1.1,2-2,3.3-2.8c-0.8-1.4-1.8-2.6-3-3.7C75,414.3,74.9,414.2,74.8,414.2
							z"/>
					</g>
				</g>
			</g>
			<g>
				<g>
					<g>
						<path d="M86.4,426.5c-0.4-0.1-0.8-0.1-1.1-0.1s-0.7,0.1-1.1,0.2c-0.3,0.2-0.7,0.3-0.9,0.6c-0.2,0.2-0.5,0.6-0.7,0.9l0,0
							c-0.1,0.1-0.2,0.2-0.3,0.1s-0.1-0.2-0.1-0.2c0-0.5,0.2-1,0.5-1.4c0.3-0.4,0.7-0.7,1.2-1c0.5-0.2,1.1-0.2,1.6-0.2
							c0.5,0.1,1,0.3,1.3,0.7c0.1,0.1,0.1,0.2,0,0.4C86.5,426.5,86.4,426.5,86.4,426.5L86.4,426.5z"/>
					</g>
				</g>
			</g>
			<g>
				<g>
					<g>
						<path d="M95,425.4c-0.7-0.2-1.3-0.1-2,0.2c-0.2,0.2-0.5,0.3-0.7,0.7c-0.2,0.2-0.1,0.7,0.1,0.8c0.2,0.2,0.5,0.2,0.8,0.3
							c0.9,0.1,2,0,2.9-0.2C96,426.4,95.7,425.9,95,425.4"/>
					</g>
				</g>
			</g>
			<g>
				<g>
					<g>
						<path d="M96.7,430.7c-0.1,0.4-0.2,0.7-0.5,1.1c-0.2,0.3-0.5,0.6-0.8,0.8s-0.7,0.3-1.1,0.4c-0.4,0.1-0.8,0.1-1.1,0
							c-0.7-0.2-1.5-0.6-1.9-1.1c-0.5-0.6-0.7-1.3-0.7-2c0-0.1,0.1-0.2,0.2-0.2c0.1,0,0.2,0.1,0.2,0.2l0,0c0.1,0.7,0.4,1.1,0.8,1.6
							c0.4,0.4,1,0.7,1.6,0.7c0.6,0.1,1.1-0.1,1.6-0.4c0.5-0.3,0.8-0.7,1-1.3l0,0c0.1-0.2,0.3-0.3,0.6-0.2
							C96.7,430.3,96.8,430.5,96.7,430.7z"/>
					</g>
				</g>
			</g>
			<g>
				<g>
					<g>
						<path d="M88.7,430.5c-1.6-0.6-3.4-0.4-5.1,0.3c-0.1,0-0.2,0-0.2-0.1s0-0.2,0.1-0.2c1.6-1,3.5-1.3,5.4-0.8l0,0
							c0.2,0.1,0.3,0.2,0.2,0.5C89.1,430.5,89,430.5,88.7,430.5L88.7,430.5z"/>
					</g>
				</g>
			</g>
			<g>
				<g>
					<g>
						<path d="M89.5,432.2c-1.9,0.1-3.7,0.8-5.2,2c-0.1,0.1-0.2,0-0.2,0c-0.1-0.1-0.1-0.2,0-0.2c1.5-1.3,3.4-2.2,5.3-2.5l0,0
							c0.2,0,0.4,0.1,0.4,0.3C89.8,432,89.6,432.2,89.5,432.2L89.5,432.2z"/>
					</g>
				</g>
			</g>
			<g>
				<g>
					<g>
						<path d="M90.5,433.6c-1.6,0.7-3,2-3.9,3.6c-0.1,0.1-0.2,0.1-0.2,0.1c-0.1-0.1-0.1-0.2-0.1-0.2c0.8-1.7,2.1-3.2,3.9-4.2l0,0
							c0.2-0.1,0.4,0,0.5,0.2C90.8,433.2,90.7,433.5,90.5,433.6L90.5,433.6z"/>
					</g>
				</g>
			</g>
			<g>
				<g>
					<g>
						<path d="M93.6,424.5c-0.1-1.5,0.5-3,1.6-3.9c0.1-0.1,0.2-0.1,0.2,0c0.1,0.1,0.1,0.2,0,0.2c-0.9,1-1.2,2.4-1,3.6
							c0,0.2-0.1,0.4-0.3,0.4C93.8,424.9,93.7,424.7,93.6,424.5L93.6,424.5L93.6,424.5z"/>
					</g>
				</g>
			</g>
			<g>
				<g>
					<g>
						<path d="M95.1,425.4c0.3-1.3,1.1-2.5,2.3-3c0.1,0,0.2,0,0.2,0.1c0,0.1,0,0.2-0.1,0.2l0,0c-1,0.7-1.6,1.8-1.7,2.9
							c0,0.2-0.2,0.3-0.4,0.3C95.2,425.8,95.1,425.6,95.1,425.4L95.1,425.4L95.1,425.4z"/>
					</g>
				</g>
			</g>
			<g>
				<g>
					<g>
						<path d="M96.1,427.3c0.2-0.3,0.3-0.5,0.5-0.7c0.2-0.2,0.4-0.4,0.7-0.6c0.2-0.2,0.5-0.3,0.7-0.5c0.2-0.2,0.5-0.2,0.8-0.3
							c0.1,0,0.2,0.1,0.2,0.2s0,0.2-0.1,0.2l0,0c-0.2,0.1-0.4,0.2-0.7,0.3c-0.2,0.2-0.4,0.3-0.6,0.5c-0.2,0.2-0.3,0.4-0.5,0.6
							c-0.2,0.2-0.2,0.4-0.3,0.7c-0.1,0.2-0.2,0.3-0.5,0.2C96.1,427.8,96,427.5,96.1,427.3C96.1,427.3,96.1,427.3,96.1,427.3
							L96.1,427.3z"/>
					</g>
				</g>
			</g>
			<g>
				<g>
					<g>
						<path d="M59.8,399.6c-1.4,0-2.8-0.7-3.4-2c-0.3-0.7-0.4-1.3-0.5-2c-0.1-0.6-0.2-1.1-0.4-1.6c-0.2-0.3-0.5-0.7-0.8-0.8
							c-0.1,0-0.1-0.1-0.2-0.2l-0.1-0.1c-0.2-0.2-0.5-0.4-0.8-0.6c-0.4-0.2-0.7-0.5-1.1-0.8c-1.1-1.2-1.1-3.4,0.1-4.7
							c0.5-0.6,1.1-1,2-1.1c0.1,0,0.1,0,0.2,0h0.1c3-0.2,6,0.9,7.9,2.9c2.1,2.3,2.6,5.7,1.3,8.2l0,0c-0.7,1.5-2,2.5-3.5,2.8
							C60.3,399.6,60,399.6,59.8,399.6z M55.4,392.2c0.6,0.3,1,0.7,1.2,1.2c0.3,0.7,0.4,1.4,0.5,2c0.1,0.6,0.2,1.1,0.3,1.6
							c0.4,0.9,1.7,1.5,2.8,1.2s2-1.1,2.6-2.2l0,0c1.1-2,0.6-4.9-1.1-6.8c-1.6-1.7-4.2-2.7-6.9-2.5h-0.1c-0.6,0.2-1,0.5-1.4,0.8
							c-0.8,0.9-0.8,2.3-0.2,3c0.2,0.2,0.6,0.4,0.9,0.7c0.3,0.2,0.7,0.4,1,0.7C55.4,392.1,55.4,392.2,55.4,392.2z"/>
					</g>
				</g>
			</g>
			<g class="st24">
				<g>
					<g>
						<path d="M97.6,448.7c-0.4,0.7-1.2,1.3-2,1.6c-1.1,0.4-2.4,0.4-3.6,0.3c-2.5-0.1-5.2-0.2-7.7-0.2c-3.9-0.1-7.6-0.2-11.5-0.3
							c-1,0-1.9-0.1-2.9-0.1c-5.5-0.2-11.5-0.5-15.5-4.2c0.7,1,0.5,2.8-0.6,3.6c-1,0.8-2.5,1-3.8,0.9c-3.9-0.3-7.7-2.1-10.6-4.8
							c-2.9-2.7-4.9-6.2-6.2-9.9c-0.4-1.2-0.7-2.5-1-3.9c-0.7-3.8-0.6-7.7,0.6-11.3c0.9-2.7,2.4-5.3,4.4-7.4
							c-3.5,8.6-2.3,21.7,3.4,26.3c8.1,6.6,5.2-6.6,5.2-6.6s5.8-2,7.6-10.7c0,0,3.9,7,0.9,13.6c-0.5,1.1-0.2,2.5,0.7,3.3
							c1.8,1.7,5.1,4.2,8.7,4.2c0,0,8.9,5.2,22.5,4.9C91.1,448,94.9,448.2,97.6,448.7z"/>
					</g>
				</g>
			</g>
			<g class="st24">
				<g>
					<g>
						<path d="M92.3,437.2c-9.7,7.5-18,5.2-21.7,1.6c-1.1-1.1-2-2.3-2.9-3.6c-0.8-1.5-1.5-3-1.7-4.7c-0.2-1.5-0.2-3,0.1-4.5
							c0.5-2.1,1.5-4.1,3-5.8c-1.1,8.4,1.1,18.4,11.1,18.4c10.7,0,14.6-6.5,16-11.5c0.1,0.2,0.2,0.5,0.2,0.8
							C96.8,431.4,95.1,435.1,92.3,437.2z"/>
					</g>
				</g>
			</g>
			<g class="st24">
				<g>
					<g>
						<path d="M63.5,396.4c-0.7,1.2-1.7,2.2-3.1,2.5c-1.3,0.2-2.9-0.3-3.4-1.6c-0.6-1.1-0.2-2.5-0.8-3.6c-0.2-0.5-0.7-0.8-1.1-1.1
							c-1.3-0.7-3.3-0.4-4.6,0.5c-2.5,1.6-3.8,4.6-3.9,7.5c-0.1,2.7,0.7,5.3,2.2,7.7c-0.2-0.1-0.3-0.1-0.5-0.2
							c-5.1-2.3-5.7-15.6,3.3-18.4c7.5-2.3,5.7,5.3,9,5.4c3,0.1,2.7-2.8,3-4C64.3,392.8,64.4,394.8,63.5,396.4z"/>
					</g>
				</g>
			</g>
		</g>
	</g>
	<g id="Floor">
		<line class="st2" x1="-41.2" y1="449.4" x2="361.2" y2="449.4"/>
	</g>
	<g id="Character">
		<g>
			<g>
				<path class="st23" d="M252.8,224.7c0,0,6.9-15.5,18-16.1c11.2-0.6,28.3,14.9,32.3,24s-1.2,14.1-0.4,16.8
					c0.8,2.7,12.6,9.5,11.8,18.9c-0.8,9.3-7.9,13.4-5.4,16.4c2.5,3,7.9,8.3,4.8,12.8c-3.1,4.6-11.6,7.5-17.6,7.5
					c-6,0-30-9.9-39.2-14.9s-8.3-27.1-6-33.1s9.3-6.6,7.5-10.1c-1.9-3.5-7.5-5.2-8.1-11.6C250,228.7,252.8,224.7,252.8,224.7z"/>
				<g>
					<path class="st4" d="M309.7,325.3c0,0,1.9,9.3,2.9,12.1c0.9,2.8,0.7,4-1,5.6c-1.7,1.5-3.5,3.5-4.6,4.3c-1,0.8-2.1,0.4-2.8-0.7
						c-0.7-1,0.1-1.4,0.5-1.4s0.8,0,0.8,0s-1.3-3.8-1.5-6.4s1.1-6.6,1.1-8.6s0.1-4.2,0.1-4.2L309.7,325.3z"/>
					<path class="st2" d="M307.5,337.5c0,0-0.1,4.7-0.3,5.8c-0.1,1.1-0.4,3.2-1.7,1.8"/>
				</g>
				<g>
					<path class="st3" d="M300.8,265.8c0,0,0,0.3,0,0.8c0.1,4.1,0.6,22.5,2.9,30.6c2.6,9.1,9.9,27.6,9.9,27.6s-4.4,2.8-8.9,3.6
						c-4.4,0.9-8.2,0.6-8.2,0.6s-3.8-17.1-5-29.3c-1.3-12.2-0.6-31.2-0.6-31.2L300.8,265.8z"/>
					<g>
						<path class="st5" d="M309.2,326.9c-0.4,0.1-0.7,0.3-1.2,0.5c-10.5-26.6-10.5-52.5-10.2-60.8l1.3-0.3
							C298.8,274,298.6,300.1,309.2,326.9z"/>
						<path class="st5" d="M293.7,267.7l1.3-0.3c0.3,8.9,1.9,41.2,7.8,61.3c-0.5,0.1-0.9,0.1-1.3,0.1
							C295.6,308.9,294.1,277.1,293.7,267.7z"/>
					</g>
					<path class="st17" d="M300.8,265.8c0,0,0,0.3,0,0.8c0.1,4.1,0.6,22.5,2.9,30.6c2.6,9.1,9.9,27.6,9.9,27.6s-4.4,2.8-8.9,3.6
						c-4.4,0.9-8.2,0.6-8.2,0.6s-3.8-17.1-5-29.3c-1.3-12.2-0.6-31.2-0.6-31.2L300.8,265.8z"/>
				</g>
				<g>
					<path class="st4" d="M296.8,348.3c0,0,4.8,39.2,5.7,41.5c0.9,2.3,2.8,5.7,3.8,12.6c1.1,6.9,3.4,32.2,3.4,32.2
						s9.3,6.3,10.1,12.2c0.7,4.9-5.9,4.6-10.7,0.4s-4.2-5.5-5.5-7.8s-1.7-5.5-1.9-7.6s-10.5-26.3-11.8-31.4s-1.1-9.7-1.9-11.8
						c-0.9-2.1-11.8-34.3-11.8-34.3L296.8,348.3z"/>
					<path class="st23" d="M297.6,355.3c-4.8,1.6-13.4,3.1-20.1,2.9c-0.8-2.4-1.3-3.8-1.3-3.8l20.6-6.1
						C296.8,348.3,297.1,351.8,297.6,355.3z"/>
					<path class="st3" d="M303.5,439.5c-0.7-1.3-1.1-2.9-1.5-4.4c1.4,2.5,2.7,4.8,2.7,4.8s1.1-3,2.1-4.4c1.1-1.5,3,0,3,0l1.1,0.1
						c2.6,2,8.1,6.7,8.8,11.2c0.7,4.9-5.9,4.6-10.7,0.4C304.1,443.1,304.8,441.8,303.5,439.5z"/>
				</g>
				<g>
					<path class="st4" d="M269.6,354c0,0,2.3,31.8,1.1,38.6c-1.3,6.7-1.5,8.7-1.5,8.7s-0.6,25.7-0.9,29.1
						c-0.2,3.4,1.3,16.7,1.1,17.3s-1.4,0.8-2.4,1.2c-1.1,0.4-3-0.6-3.6-0.1c-4.8,3.6-9.9,2.4-12.4,2.4c-2.6,0-3-1.5-1.5-3.4
						c1.5-1.9,10.5-6.7,10.9-9.5c0.4-2.8-5-30.8-5.5-37.7c-0.4-6.9,0-15-0.4-16.5c-0.4-1.5-4.2-22.3-4.6-31.4L269.6,354z"/>
					<path class="st23" d="M270,358.8c-3.2,1.1-9.7,2.4-19.6-0.5c-0.3-2.1-0.4-4.1-0.5-5.7l19.8,1.5
						C269.6,354,269.7,355.9,270,358.8z"/>
					<path class="st28" d="M260.1,438.8c0.5,0,1,0.1,1.5,0.7c1.3,1.2,1.8,3.6,1.8,3.6s3.4-1.1,5.6-1.9c0.3,3.3,0.5,6,0.4,6.2
						c-0.2,0.6-1.4,0.8-2.4,1.2c-1.1,0.4-3-0.6-3.6-0.1c-4.8,3.6-9.9,2.4-12.4,2.4c-2.6,0-3-1.5-1.5-3.4
						C250.7,445.7,258.4,441.6,260.1,438.8z"/>
				</g>
				<g>
					<g>
						<path class="st4" d="M292.6,304.1l11.8,47.8c0,0-17.7,3.6-30.5,4.2l-1.9-4.6l-0.9,5.2c0,0-10.9,0.9-19.3-0.9
							c-8.4-1.7-13.1-7.2-13.1-7.2l13.6-43.1L292.6,304.1z"/>
						<g>
							<path class="st4" d="M239.9,344.5c2.1,3,6.2,6.6,12.5,7.9c8.1,1.7,15.7,1.6,19.2,1.4l-0.5,3c0,0-10.9,0.9-19.3-0.9
								c-8.4-1.7-13.1-7.2-13.1-7.2L239.9,344.5z"/>
							<path class="st4" d="M304.3,351.9c0,0-17.7,3.6-30.5,4.2l-1-2.5c0.5-0.1,0.8-0.1,0.8-0.1s8.1-0.8,15.7-2.2
								c6.6-1.3,13.2-2.2,14.2-2.6L304.3,351.9z"/>
						</g>
					</g>
					<polyline class="st2" points="292.2,308.7 283,310.4 282.3,307.5 					"/>
					<path class="st2" d="M280.3,307.8l0.5,3c0,0-12.6,0.5-17.9,0v-1.9"/>
					<polyline class="st2" points="261,308.4 261,310.5 253.1,309.5 253.1,308.3 					"/>
					<line class="st2" x1="273.8" y1="312.1" x2="272.9" y2="348.5"/>
					<polyline class="st2" points="272.9,331.6 271.4,330.3 271,314 					"/>
					<path class="st2" d="M281.5,311.1c0,0,0.4,8.9,7,12.8s9,3.8,9,3.8"/>
					<path class="st2" d="M261.7,312c0,0-1.7,16.3-15.4,16.4"/>
					<ellipse class="st0" cx="291" cy="338.9" rx="5.2" ry="5.2"/>
					<path class="st29" d="M287,338.9c0,2.2,1.8,4,4,4c2.2,0,4-1.8,4-4c0-2.2-1.8-4-4-4C288.8,335,287,336.7,287,338.9z"/>
					<circle class="st0" cx="281.9" cy="347.1" r="1.3"/>
					<g>
						<path class="st0" d="M244,338.9c0,1.3,1.1,2.4,2.4,2.4s2.4-1.1,2.4-2.4s-1.1-2.4-2.4-2.4C245.1,336.5,244,337.5,244,338.9z"/>
						<path class="st29" d="M246.3,337.9c0,0,1.7-1.5,1.8,0.2c0.1,1.7-1.3,0.7-1.3,0.7s0.9,1.5,0,1.5c-0.9,0-0.9-1-0.9-1
							s-0.5,1.3-1,0.3c-0.5-0.9,0.7-1.3,0.7-1.3s-1-0.3-0.5-0.9C245.5,336.9,246,336.5,246.3,337.9z"/>
					</g>
				</g>
				<path class="st4" d="M293,279.9c0,0,0.2,14.5,1.5,19.1s0,5-1.7,6.3s-23.4,3.4-31.2,2.8c-7.8-0.6-10.5,0-10.9-3.2
					c-0.4-3.2,0.4-12,0.4-12s-14.5,1.7-15.4,0.9c-0.9-0.9,7.4-21.3,10.3-28.6c3-7.3,5-8.5,9.3-8.4c6.5,0.2,9.9-0.7,10.7-1
					c0.9-0.2,1.3-6.2,1.3-6.2l8.5-1.9c0,0,0.1,5.7,1,7.2s7.8,3,13,3.6s9.3,0.9,10.5,5c0.8,2.6,0.9,6.4,0.1,9.5"/>
				<path class="st23" d="M267.1,252.1c0,0,3.9,3.4,10,4.1c6.2,0.7,3.4-9.1,3.4-9.1S270.6,252.1,267.1,252.1z"/>
				<g>
					<path class="st3" d="M293,279.9c0,0,0.2,14.5,1.5,19.1s0,5-1.7,6.3s-23.4,3.4-31.2,2.8c-7.8-0.6-10.5,0-10.9-3.2
						c-0.4-3.2,0.4-12,0.4-12s-14.5,1.7-15.4,0.9c-0.9-0.9,7.4-21.3,10.3-28.6c0.1-0.3,0.3-0.7,0.4-1c4.4,1.3,11.7,3,22.1,3.5
						c14.2,0.7,27.1-1.1,32.2-1.9c0.3,2,0.6,6.9,0.2,8.9"/>
					<g>
						<path class="st5" d="M249.1,264.9c0.4,0.1,0.8,0.2,1.2,0.3l-8.1,28.6c-0.5,0.1-0.9,0.1-1.3,0.1L249.1,264.9z"/>
						<path class="st5" d="M262.2,308.1c-0.2,0-0.3,0-0.5-0.1c-0.3,0-0.5-0.1-0.7-0.1l1.5-40.8c0.4,0.1,0.8,0.1,1.3,0.1L262.2,308.1
							z"/>
						<path class="st5" d="M295.5,278.3l-1.2,0.8c-0.3-5.6-0.5-10.1-0.6-12.3c0.4-0.1,0.9-0.1,1.3-0.1
							C294.9,268.8,295.1,272.9,295.5,278.3z"/>
						<path class="st5" d="M256.6,266.5c0.4,0.1,0.8,0.1,1.3,0.2l-1.9,41c-0.5,0-0.9-0.1-1.3-0.1L256.6,266.5z"/>
						<path class="st5" d="M253.6,265.9c0.4,0.1,0.8,0.1,1.2,0.3c-1.1,6.2-3.4,18.4-5,26.9c-0.4,0.1-0.8,0.1-1.3,0.1
							C250.2,284.3,252.4,272.1,253.6,265.9z"/>
						<path class="st5" d="M268.4,308.2c-0.4,0-0.9,0-1.3,0.1l2.2-40.5c0.4,0,0.9,0,1.3,0.1L268.4,308.2z"/>
						<path class="st5" d="M276.1,267.8c0.4,0,0.9,0,1.3,0l-0.4,39.8c-0.4,0.1-0.9,0.1-1.3,0.1L276.1,267.8z"/>
						<path class="st5" d="M299.1,276l-1.2,0.8c-0.2-4.7-0.1-8.3,0-10.5c0.5-0.1,0.9-0.1,1.3-0.2C299,268.1,299,271.5,299.1,276z"/>
						<path class="st5" d="M282,267.7c0.4,0,0.9-0.1,1.3-0.1l1.9,39.2c-0.4,0.1-0.8,0.1-1.3,0.1L282,267.7z"/>
						<path class="st5" d="M290.6,306c-0.2-1.5-0.4-3.6-0.7-6.3c-0.7-6.7-1.4-26.2-1.5-32.4c0.4-0.1,0.9-0.1,1.3-0.1
							c0.2,6.1,0.8,25.7,1.5,32.4c0.3,2.6,0.5,4.6,0.7,6.2C291.5,305.8,291.1,305.9,290.6,306z"/>
					</g>
					<path class="st2" d="M293,279.9c0,0,0.2,14.5,1.5,19.1s0,5-1.7,6.3s-23.4,3.4-31.2,2.8c-7.8-0.6-10.5,0-10.9-3.2
						c-0.4-3.2,0.4-12,0.4-12s-14.5,1.7-15.4,0.9c-0.9-0.9,7.4-21.3,10.3-28.6c0.1-0.3,0.3-0.7,0.4-1c4.4,1.3,11.7,3,22.1,3.5
						c14.2,0.7,27.1-1.1,32.2-1.9c0.3,2,0.6,6.9,0.2,8.9"/>
				</g>
				<g>
					<path class="st4" d="M267.6,218.4c0,0-7.5,12.2-8.1,14.9s0.8,9.4,3,13.3c4.5,8.2,9.9,5.9,12.6,5c5.4-1.8,7.5-13.6,7.5-16.7
						S275.3,234.5,267.6,218.4z"/>
					<path class="st23" d="M278.3,229.3c0,0,3.6,4.2,1.4,13.2c-2.2,8.9-5.6,9.5-5.6,18.5c0,8.9,8.9,10.9,8.4,15.4s-4.2,4.5-4.2,8.9
						c0,4.5,4.2,6.7,7.5,5.8c3.4-0.8-3.4-3.1-2.2-5.3c1.1-2.2,8.3-5.6,9.8-13.4c1.5-7.9-4.3-12.8-3.6-16.1s8-6.9,8-15
						c0-8.1-5.6-13.7-8.7-16.3"/>
					<path class="st2" d="M271.8,241.7c0,0-2.1,2.1-4.5,0.3"/>
					<path class="st2" d="M273,245.6c-1,0.9-3,2.1-5.6,0.8"/>
					<path class="st14" d="M272.7,236.8c0,0.8,0.3,1.5,0.8,1.5s0.8-0.7,0.8-1.5s-0.3-1.5-0.8-1.5C273.1,235.4,272.7,236,272.7,236.8
						z"/>
					<path class="st14" d="M265,236.8c0,0.8,0.3,1.5,0.8,1.5s0.8-0.7,0.8-1.5s-0.3-1.5-0.8-1.5C265.4,235.4,265,236,265,236.8z"/>
					<path class="st30" d="M276.7,233.4c0,0-2.1-2.3-4.8-0.7"/>
					<path class="st2" d="M267,232.3c0,0,1.4,3.9,0.7,6.4"/>
					<path class="st30" d="M262.8,233.6c1.6-2.7,4.2-1.3,4.2-1.3"/>
				</g>
				<g>
					<polygon class="st23" points="257.7,284.5 267.1,284.5 267.8,271.3 256.7,271.3 					"/>
					<path class="st23" d="M251.3,313.6c0,0,1.1-20,1.1-21.3s-6.8,1.1-7.7,3.1C243.7,297.3,247,309.1,251.3,313.6z"/>
					<path class="st4" d="M249.5,289.3c0,0,3-2.3,3.6-3.2s0.5-3.9,0.9-5c0.4-1.1,1.5-2.3,1.9-3.5c0.4-1.3,0.5-3.2,1.1-2
						c0.6,1.3,0.5,3.9,0.3,4.9c-0.3,1,0.5,2.1,0.5,2.1l8.6-0.3c0,0,0.5-0.5,0.6-1.1c0.1-0.6,1.1-1,1.5,0.5c0.4,1.5-0.6,3.4-0.6,3.4
						s0.5,2,0.1,2.6c-0.4,0.6-0.7,1.3-0.9,2c-0.1,0.6-0.5,1-1.5,1.3s-8.1,2.1-9.9,2.9s-7.4,3.2-7.4,3.2L249.5,289.3z"/>
					<g>
						<path class="st3" d="M237.2,292.3l13.2-3.6c0,0-0.9,6.1-0.9,12.2s1.7,12.6,1.7,12.6s-11.2-4.2-15-9.7
							c-3.8-5.5-0.9-11.4-0.9-11.4"/>
						<g>
							<path class="st5" d="M250.1,292.4l-15.5,3.5c0.1-0.5,0.1-0.9,0.3-1.3l15.4-3.5C250.1,291.5,250.1,291.9,250.1,292.4z"/>
							<path class="st5" d="M236.4,303.9C236.4,303.9,236.4,303.9,236.4,303.9c-0.3-0.5-0.7-1-0.9-1.5c6.2,1.5,11.5,2.1,14.3,2.4
								c0.1,0.4,0.1,0.9,0.1,1.3C247.2,305.9,242.3,305.3,236.4,303.9z"/>
							<path class="st5" d="M249.7,299.2c0,0.4,0,0.9,0,1.3c-1.3,0.1-2.9,0.1-4.7,0.1c-3.2,0-6.8-0.2-10.3-0.7
								c-0.1-0.5-0.1-0.9-0.2-1.3C239.9,299.5,246,299.4,249.7,299.2z"/>
						</g>
						<path class="st2" d="M237.2,292.3l13.2-3.6c0,0-0.9,6.1-0.9,12.2s1.7,12.6,1.7,12.6s-11.2-4.2-15-9.7
							c-3.8-5.5-0.9-11.4-0.9-11.4"/>
					</g>
				</g>
			</g>
		</g>
	</g>
</g>
</svg>
